<?xml version="1.0" encoding="utf-8"?>
<!-- Generator: Adobe Illustrator 19.1.1, SVG Export Plug-In . SVG Version: 6.00 Build 0)  -->
<svg version="1.0" id="Layer_1" xmlns="http://www.w3.org/2000/svg" xmlns:xlink="http://www.w3.org/1999/xlink" x="0px" y="0px"
	 viewBox="0 0 423.198761 132.6246643" enable-background="new 0 0 423.198761 132.6246643" xml:space="preserve">
<g>
	<path fill="#0064A7" d="M299.7710266,69.2764893v4.2226563c0,0.5532227-0.203125,1.050293-0.5761719,1.4228516
		c-0.3496094,0.3388672-0.8134766,0.5307617-1.3212891,0.5307617h-1.5810547c-0.1689453,0-0.3046875-0.1357422-0.3046875-0.3046875
		v-7.5205078c0-0.1689453,0.1357422-0.3046875,0.3046875-0.3046875h1.5810547c0.5078125,0,0.9716797,0.1918945,1.3212891,0.5307617
		C299.5679016,68.2261963,299.7710266,68.7232666,299.7710266,69.2764893z M298.1557922,69.0054932
		c0-0.2373047-0.1123047-0.3500977-0.2822266-0.3500977h-0.2705078v5.4648438h0.2705078
		c0.1923828,0,0.2822266-0.112793,0.2822266-0.3500977V69.0054932z"/>
	<path fill="#0064A7" d="M303.1216125,74.0411377c0.1689453,0,0.3046875,0.1357422,0.3046875,0.3051758v0.8017578
		c0,0.1689453-0.1357422,0.3046875-0.3046875,0.3046875h-2.5410156c-0.1689453,0-0.3046875-0.1357422-0.3046875-0.3046875
		v-7.5205078c0-0.1689453,0.1357422-0.3046875,0.3046875-0.3046875h2.5410156c0.1689453,0,0.3046875,0.1357422,0.3046875,0.3046875
		v0.7456055c0,0.1694336-0.1357422,0.3046875-0.3046875,0.3046875h-1.1855469v2.1904297h0.8017578
		c0.1689453,0,0.3046875,0.1357422,0.3046875,0.3051758v0.5644531c0,0.1694336-0.1357422,0.3046875-0.3046875,0.3046875h-0.8017578
		v1.9985352H303.1216125z"/>
	<path fill="#0064A7" d="M298.691925,83.6885986c0.1689453,0,0.3046875,0.1352539,0.3046875,0.3046875v0.847168
		c0,0.1689453-0.1357422,0.3046875-0.3046875,0.3046875h-2.5410156c-0.1689453,0-0.3046875-0.1357422-0.3046875-0.3046875
		v-7.5205078c0-0.1689453,0.1357422-0.3046875,0.3046875-0.3046875h1.0507813c0.1689453,0,0.3046875,0.1357422,0.3046875,0.3046875
		v6.3686523H298.691925z"/>
	<path fill="#0064A7" d="M303.2973938,85.1451416h-1.0507813c-0.1464844,0-0.2929688-0.112793-0.3271484-0.2597656
		l-0.0791016-0.9599609h-0.8134766l-0.078125,0.9599609c-0.0458984,0.1469727-0.1806641,0.2597656-0.3388672,0.2597656h-1.0507813
		c-0.1572266,0-0.2822266-0.1357422-0.2480469-0.3046875l1.2529297-7.5205078
		c0.0234375-0.1689453,0.1923828-0.3046875,0.3505859-0.3046875h0.5078125h0.0117188h0.5078125
		c0.1689453,0,0.3271484,0.1357422,0.3613281,0.3046875l1.2529297,7.5205078
		C303.5796204,85.0093994,303.4663391,85.1451416,303.2973938,85.1451416z M301.7270813,82.7174072l-0.2929688-3.184082
		l-0.2939453,3.184082H301.7270813z"/>
	<path fill="#0064A7" d="M314.0229797,71.6309814v9.1992188c0,1.2055664-0.4433594,2.2875977-1.2548828,3.0991211
		c-0.7626953,0.7382813-1.7705078,1.15625-2.8779297,1.15625h-3.4433594c-0.3691406,0-0.6640625-0.2949219-0.6640625-0.6640625
		V68.0396729c0-0.3691406,0.2949219-0.6640625,0.6640625-0.6640625h3.4433594c1.1074219,0,2.1152344,0.4179688,2.8779297,1.15625
		C313.5796204,69.3433838,314.0229797,70.425415,314.0229797,71.6309814z M310.5054016,71.0406494
		c0-0.5166016-0.2460938-0.7626953-0.6152344-0.7626953h-0.5898438v11.9052734h0.5898438
		c0.4189453,0,0.6152344-0.2460938,0.6152344-0.7626953V71.0406494z"/>
	<path fill="#0064A7" d="M315.1264954,85.0855713V67.3756104H321.9888v2.9516602h-3.2460938v4.7719727h2.4101563v2.5581055
		h-2.4101563v4.3535156H321.9888v3.074707H315.1264954z M321.0542297,63.7349854c0.0498047-0.0981445,0-0.171875-0.0976563-0.171875
		h-2.0175781c-0.0986328,0-0.2216797,0.0981445-0.2460938,0.1967773l-0.5898438,2.5825195
		c-0.0244141,0.1230469,0.0488281,0.1967773,0.1474609,0.1967773h0.9345703c0.0986328,0,0.2460938-0.0737305,0.2949219-0.171875
		L321.0542297,63.7349854z"/>
	<path fill="#0064A7" d="M331.0630188,71.0162354v2.9267578c0,0.3691406-0.2949219,0.6640625-0.6640625,0.6640625h-2.1640625
		c-0.3691406,0-0.6640625-0.2949219-0.6640625-0.6640625v-3.1240234c0-0.5161133-0.4433594-0.5654297-0.6152344-0.5654297
		s-0.6152344,0.0493164-0.6152344,0.5654297v10.9458008c0,0.5166016,0.4433594,0.565918,0.6152344,0.565918
		s0.6152344-0.0493164,0.6152344-0.565918v-3.0004883c0-0.3691406,0.2949219-0.6640625,0.6640625-0.6640625h2.1640625
		c0.3691406,0,0.6640625,0.2949219,0.6640625,0.6640625v2.8037109c0,1.2055664-0.4423828,2.0908203-1.2539063,2.902832
		c-0.7382813,0.737793-1.7714844,0.9589844-2.8535156,0.9589844s-2.1152344-0.2211914-2.8535156-0.9589844
		c-0.8115234-0.8120117-1.2539063-1.6972656-1.2539063-2.902832V71.0162354c0-1.2055664,0.4423828-2.1157227,1.2539063-2.902832
		c0.7382813-0.737793,1.7714844-0.9589844,2.8535156-0.9589844s2.1152344,0.2211914,2.8535156,0.9589844
		C330.620636,68.9005127,331.0630188,69.8106689,331.0630188,71.0162354z"/>
	<path fill="#0064A7" d="M340.1860657,70.991333v10.6015625c0,1.2050781-0.4433594,2.0908203-1.2548828,2.8779297
		c-0.7626953,0.762207-1.8203125,0.9589844-2.9023438,0.9589844s-2.1396484-0.1967773-2.9023438-0.9589844
		c-0.7871094-0.7871094-1.2304688-1.6728516-1.2304688-2.8779297V70.991333c0-1.1806641,0.4433594-2.0908203,1.2304688-2.8779297
		c0.7626953-0.737793,1.8203125-0.9589844,2.9023438-0.9589844s2.1396484,0.2211914,2.9023438,0.9589844
		C339.7427063,68.9005127,340.1860657,69.8106689,340.1860657,70.991333z M336.6929016,70.7945557
		c0-0.4916992-0.4677734-0.5410156-0.6640625-0.5410156c-0.171875,0-0.6396484,0.0493164-0.6396484,0.5410156v10.9951172
		c0,0.4916992,0.4677734,0.5654297,0.6396484,0.5654297c0.1962891,0,0.6640625-0.0737305,0.6640625-0.5654297V70.7945557z"/>
	<path fill="#0064A7" d="M349.2837219,68.0640869v13.4301758c0,1.1806641-0.4423828,2.1894531-1.2294922,2.9765625
		c-0.7626953,0.737793-1.7958984,0.9589844-2.8779297,0.9589844c-1.0830078,0-2.140625-0.2211914-2.8779297-0.9589844
		c-0.7871094-0.7871094-1.2304688-1.7958984-1.2304688-2.9765625V68.0640869c0-0.3686523,0.2958984-0.6640625,0.6640625-0.6640625
		h2.140625c0.3691406,0,0.6640625,0.2954102,0.6640625,0.6640625v13.7255859c0,0.4916992,0.4667969,0.5410156,0.6396484,0.5410156
		c0.171875,0,0.6396484-0.0493164,0.6396484-0.5410156V68.0640869c0-0.3686523,0.2949219-0.6640625,0.6640625-0.6640625h2.1396484
		C348.9888,67.4000244,349.2837219,67.6954346,349.2837219,68.0640869z"/>
	<path fill="#0064A7" d="M359.4145813,68.0396729l-2.7060547,16.3818359
		c-0.0488281,0.3691406-0.3935547,0.6640625-0.7626953,0.6640625h-2.3857422c-0.3691406,0-0.7128906-0.2949219-0.7626953-0.6640625
		l-2.7050781-16.3818359c-0.0498047-0.3691406,0.1962891-0.6640625,0.5654297-0.6640625h2.2880859
		c0.3681641,0,0.6884766,0.2949219,0.7373047,0.6640625c0.984375,10.3798828,0.984375,10.3798828,1.0576172,11.0439453
		c0.0742188-0.6640625,0.0742188-0.6640625,1.0830078-11.0439453c0.0488281-0.3691406,0.3681641-0.6640625,0.7373047-0.6640625
		h2.2880859C359.2173157,67.3756104,359.4634094,67.6705322,359.4145813,68.0396729z"/>
	<path fill="#0064A7" d="M368.1196594,85.0855713h-2.6572266c-0.171875,0-0.2949219-0.3935547-0.2949219-0.8857422v-5.3374023
		c0-0.4916992-0.171875-0.737793-0.6152344-0.737793h-0.6142578v5.730957v0.565918
		c0,0.3691406-0.2958984,0.6640625-0.6640625,0.6640625c-0.5166016,0-1.1318359,0-2.1650391,0
		c-0.3691406,0-0.6640625-0.2949219-0.6640625-0.6640625V68.0396729c0-0.3691406,0.2949219-0.6640625,0.6640625-0.6640625h3.4433594
		c1.0830078,0,2.1152344,0.4179688,2.8779297,1.1806641c0.7871094,0.7871094,1.2304688,1.8691406,1.2304688,3.074707v2.2626953
		c0,1.0825195-0.5664063,2.1157227-1.2304688,2.8779297c0.9101563,0.7133789,1.2304688,1.7958984,1.2304688,2.8779297v4.5014648
		C368.660675,84.6182861,369.1030579,85.0855713,368.1196594,85.0855713z M365.167511,71.0406494
		c0-0.4921875-0.1474609-0.7626953-0.6152344-0.7626953h-0.6142578V75.22229h0.6142578
		c0.4677734,0,0.6152344-0.2460938,0.6152344-0.7382813V71.0406494z"/>
	<path fill="#0064A7" d="M378.2749329,85.0855713h-2.2871094c-0.3203125,0-0.6396484-0.2460938-0.7138672-0.565918
		l-0.171875-2.090332h-1.7705078l-0.1728516,2.090332c-0.0986328,0.3198242-0.3935547,0.565918-0.7373047,0.565918h-2.2880859
		c-0.3447266,0-0.6152344-0.2949219-0.5410156-0.6640625l2.7304688-16.3818359
		c0.0488281-0.3691406,0.4179688-0.6640625,0.7626953-0.6640625h1.1064453h0.0244141h1.1074219
		c0.3691406,0,0.7128906,0.2949219,0.7871094,0.6640625l2.7304688,16.3818359
		C378.8901672,84.7906494,378.6440735,85.0855713,378.2749329,85.0855713z M374.8559875,79.7969971l-0.6396484-6.9360352
		l-0.6396484,6.9360352H374.8559875z"/>
	<path fill="#0064A7" d="M388.2827454,78.8873291v1.9428711c0,1.2055664-0.4423828,2.3120117-1.2294922,3.0991211
		c-0.7626953,0.7382813-1.9433594,1.15625-3.0253906,1.15625h-3.46875c-0.3691406,0-0.6640625-0.2949219-0.6640625-0.6640625
		V68.0396729c0-0.3691406,0.2949219-0.6640625,0.6640625-0.6640625h3.2714844c1.0820313,0,2.2626953,0.4179688,3.0253906,1.1806641
		c0.7871094,0.7871094,1.2294922,1.894043,1.2294922,3.074707v1.6723633c0,0.9838867-0.4912109,1.9189453-1.0820313,2.6567383
		C387.7173157,76.7471924,388.2827454,77.7803955,388.2827454,78.8873291z M383.4126282,74.8287354h0.4667969
		c0.4677734,0,0.6894531-0.2954102,0.6894531-0.7382813v-3.0498047c0-0.4921875-0.2958984-0.737793-0.7382813-0.737793h-0.4179688
		V74.8287354z M384.7651672,78.1002197c0-0.4921875-0.34375-0.7626953-0.7128906-0.7626953h-0.6396484v4.8457031h0.6152344
		c0.5654297,0,0.7373047-0.2460938,0.7373047-0.7626953V78.1002197z"/>
	<path fill="#0064A7" d="M393.026886,84.4215088c0,0.3691406-0.2949219,0.6640625-0.6640625,0.6640625h-2.1640625
		c-0.3691406,0-0.6640625-0.2949219-0.6640625-0.6640625V68.0396729c0-0.3691406,0.2949219-0.6640625,0.6640625-0.6640625h2.1640625
		c0.3691406,0,0.6640625,0.2949219,0.6640625,0.6640625V84.4215088z"/>
	<path fill="#0064A7" d="M400.7485657,81.9127197c0.3691406,0,0.6640625,0.2949219,0.6640625,0.6640625v1.8447266
		c0,0.3691406-0.2949219,0.6640625-0.6640625,0.6640625h-5.5341797c-0.3691406,0-0.6640625-0.2949219-0.6640625-0.6640625
		V68.0396729c0-0.3691406,0.2949219-0.6640625,0.6640625-0.6640625h2.2880859c0.3681641,0,0.6640625,0.2949219,0.6640625,0.6640625
		v13.8730469H400.7485657z"/>
	<path fill="#0064A7" d="M406.0591125,84.4215088c0,0.3691406-0.2949219,0.6640625-0.6640625,0.6640625h-2.1640625
		c-0.3691406,0-0.6640625-0.2949219-0.6640625-0.6640625V68.0396729c0-0.3691406,0.2949219-0.6640625,0.6640625-0.6640625h2.1640625
		c0.3691406,0,0.6640625,0.2949219,0.6640625,0.6640625V84.4215088z"/>
	<path fill="#0064A7" d="M413.0679016,84.4215088c0,0.3691406-0.2949219,0.6640625-0.6640625,0.6640625h-2.2138672
		c-0.3691406,0-0.6640625-0.2949219-0.6640625-0.6640625V70.3272705h-1.6728516
		c-0.3691406,0-0.6640625-0.2954102-0.6640625-0.6640625v-1.6235352c0-0.3691406,0.2949219-0.6640625,0.6640625-0.6640625h6.8876953
		c0.3681641,0,0.6640625,0.2949219,0.6640625,0.6640625v1.6235352c0,0.3686523-0.2958984,0.6640625-0.6640625,0.6640625h-1.6728516
		V84.4215088z"/>
	<path fill="#0064A7" d="M416.3364563,85.0855713V67.3756104h6.8623047v2.9516602h-3.2460938v4.7719727h2.4101563v2.5581055
		h-2.4101563v4.3535156h3.2460938v3.074707H416.3364563z M422.2641907,63.7349854
		c0.0498047-0.0981445,0-0.171875-0.0986328-0.171875h-2.0166016c-0.0986328,0-0.2216797,0.0981445-0.2460938,0.1967773
		l-0.5898438,2.5825195c-0.0244141,0.1230469,0.0488281,0.1967773,0.1474609,0.1967773h0.9345703
		c0.0986328,0,0.2460938-0.0737305,0.2949219-0.171875L422.2641907,63.7349854z"/>
	<g>
		<path fill="#D31B5A" d="M406.3623352,24.7262573l-0.4893799-15.399292
			c-0.0186157-0.5828857-0.5013428-1.046875-1.0805664-1.046814c-0.0114136,0-0.0228882,0.0001831-0.0343628,0.0005493
			l-92.8728027,2.951416c-0.5943604,0.0189819-1.0650635,0.5206299-1.0462646,1.1149902l0.491394,15.4629517
			c0.0186157,0.5828857,0.5013428,1.046814,1.0805664,1.046814c0.0114136,0,0.0228882-0.0001831,0.0343628-0.0005493
			l2.8156738-0.0894775l15.9454956-0.5067139l3.5479736-0.112793l9.9854736-0.3173218l4.1744385-0.1326904l9.9240723-0.3153687
			l2.8768921-0.0914307l9.9177246-0.3151855l4.3121338-0.1370239l9.854126-0.3131714l2.8770752-0.0914307l14.8522339-0.4719849
			l1.4206543-0.045166l0.3688354-0.0117188c0.5943604-0.0189209,1.0650635-0.5205688,1.0462646-1.1149292L406.3623352,24.7262573z"
			/>
		<path fill="#00A399" d="M303.5845337,24.2466431c-2.7705994,0-4.5283813,0.6392365-6.0205078,2.0781555
			c-1.8652954,1.8115387-2.717804,3.8364868-2.717804,6.2871399c0,0,0,4.6895142,0,4.795929
			c0,2.344223,0.6923218,3.7295227,2.1317749,5.1684418l5.5410767,5.0088043
			c1.8115234,1.7583313,2.2909851,1.9179688,2.2909851,3.5697479v4.6889801c0,1.0660095-1.0117188,1.1724396-1.2783203,1.1724396
			c-0.3202209,0-1.3319702-0.1064301-1.3319702-1.1724396v-5.0620117c0-0.7992859-0.6396179-1.438385-1.4385071-1.438385h-4.476532
			c-0.7988586,0-1.4385071,0.6390991-1.4385071,1.438385v4.6889648c0,2.4511871,0.8525085,4.4223785,2.717804,6.2344666
			c1.4921265,1.4915924,3.2499084,2.1312256,5.9677124,2.1312256c2.8242188,0,4.7949829-0.6928406,6.234436-2.1312256
			c1.8642273-1.812088,2.7167358-3.7832794,2.7167358-6.2344666v-4.4755859c0-2.9306335-0.3192749-4.3695526-2.0244141-6.0746765
			l-5.6484375-4.8486176c-1.2783203-1.2788696-2.2909851-1.5986938-2.2909851-3.4101105v-4.4755859
			c0-0.9595947,0.6924438-1.1724396,1.1719055-1.1724396c0.3730164,0,1.1190796,0.2128448,1.1190796,1.2256622v4.4755859
			c0,0.7992706,0.6396484,1.4389191,1.4394531,1.4389191h4.5820313c0.7988586,0,1.4385071-0.6396484,1.4385071-1.4389191v-4.1030884
			c0-2.4506531-0.852478-4.4756012-2.717804-6.2871399C308.0610657,24.8858795,306.3023376,24.2466431,303.5845337,24.2466431"/>
		<path fill="#00A399" d="M323.3529968,57.1759186c-0.3730469,0-1.3857117-0.1596375-1.3857117-1.2256622V32.1324768
			c0-1.0654907,1.0126648-1.1719208,1.3857117-1.1719208c0.4258423,0,1.4385071,0.1064301,1.4385071,1.1719208v23.8177795
			C324.7915039,57.0162811,323.7788391,57.1759186,323.3529968,57.1759186 M331.2064514,28.2601166l-15.9454956,0.5067444
			c-0.5610046,1.1182556-0.8600769,2.3636627-0.8600769,3.7918549v22.9653015c0,2.6108246,0.9590454,4.5293427,2.664032,6.2344513
			c1.6524658,1.6517792,3.9434509,2.0780182,6.2880859,2.0780182c2.343811,0,4.6357727-0.426239,6.2871399-2.0780182
			c1.7588501-1.7051086,2.7177734-3.6236267,2.7177734-6.2344513V32.5587158
			C332.3579102,30.9110413,331.9598999,29.5066833,331.2064514,28.2601166"/>
		<path fill="#00A399" d="M358.8384094,27.3819733l-9.9240723,0.3153839l-2.1179199,26.0151062l-2.0565186-25.882431
			l-9.9854736,0.317337v33.5045471c0,0.7988739,0.6396179,1.4385071,1.4385071,1.4385071h3.7304688
			c0.7988586,0,1.4385071-0.6396332,1.4385071-1.4385071v-20.460907l2.4510498,20.460907
			c0.1065674,0.7988739,0.7988586,1.4385071,1.5986938,1.4385071h2.8242188c0.7988586,0,1.4911804-0.6396332,1.5975952-1.4385071
			c2.2920837-18.9691772,2.2920837-18.9691772,2.4512024-20.4076843v20.4076843
			c0,0.7988739,0.6396484,1.4385071,1.4385071,1.4385071h3.6767273c0.7998047,0,1.4385071-0.6396332,1.4385071-1.4385071V27.3819733
			"/>
		<path fill="#00A399" d="M385.7992859,26.5251617l-9.854126,0.3131714l-2.1878662,26.8741302l-2.1242981-26.7370911
			l-9.9176941,0.3151855v34.3613586c0,0.7988739,0.6397705,1.4385071,1.4385071,1.4385071h3.7304688
			c0.7988586,0,1.4385071-0.6396332,1.4385071-1.4385071v-20.460907l2.4512024,20.460907
			c0.1064148,0.7988739,0.7988586,1.4385071,1.5985413,1.4385071h2.8242188c0.7988892,0,1.491333-0.6396332,1.5977478-1.4385071
			c2.2919617-18.9691772,2.2919617-18.9691772,2.4512024-20.4076843v20.4076843c0,0.7988739,0.6396179,1.4385071,1.438385,1.4385071
			h3.6768188c0.7998352,0,1.438385-0.6396332,1.438385-1.4385071V26.5251617"/>
		<path fill="#00A399" d="M403.5285645,25.961731l-14.8522339,0.4720001v35.2181854
			c0,0.7988739,0.6396179,1.4385071,1.4385071,1.4385071h11.9891968c0.7988586,0,1.4385071-0.6396332,1.4385071-1.4385071
			v-3.7831421c0-0.7992859-0.6396484-1.4389191-1.4385071-1.4389191h-5.594696v-9.4311676h3.7831421
			c0.7988586,0,1.4385071-0.6392365,1.4385071-1.4385223v-2.664032c0-0.7992859-0.6396484-1.4389191-1.4385071-1.4389191h-3.7831421
			V31.1202087h5.594696c0.7988586,0,1.4385071-0.6390991,1.4385071-1.438385v-3.5172119
			C403.5425415,26.0956879,403.5377808,26.0279999,403.5285645,25.961731"/>
		<path fill="#00A399" d="M421.2865906,24.7262421h-14.9198303c-0.0014648,0-0.0029907,0-0.0044556,0.0000153l0.0020447,0.0636749
			c0.0187988,0.5943604-0.4519348,1.095993-1.0462952,1.1149292l-0.3688354,0.011734
			c-0.0137939,0.0804749-0.0209656,0.1633911-0.0209656,0.2480164v3.5172119c0,0.7992859,0.6396179,1.438385,1.4385071,1.438385
			h3.6240234v30.5317078c0,0.7988739,0.6387024,1.4385071,1.438385,1.4385071h4.7950134
			c0.7997742,0,1.4394226-0.6396332,1.4394226-1.4385071V31.1202087h3.6229858c0.7988892,0,1.4385376-0.6390991,1.4385376-1.438385
			v-3.5172119C422.7251282,25.3658752,422.0854797,24.7262421,421.2865906,24.7262421"/>
		<path fill="#D31B5A" d="M404.7923889,8.2801361c-0.0114441,0-0.0229187,0.0001831-0.0343933,0.0005493l-92.8728027,2.9514694
			c-0.5943604,0.0189514-1.0650635,0.5205841-1.0462646,1.1149368l0.4914246,15.4629822
			c0.0185852,0.5828552,0.5013428,1.046814,1.0805359,1.046814c0.0114136,0,0.0228882-0.0001831,0.0343933-0.0005493
			l2.8156738-0.0894775c0.443634-0.8843231,1.0510559-1.6891022,1.8039551-2.4420624
			c1.6524658-1.5985565,3.9434509-2.0781555,6.2880859-2.0781555c2.343811,0,4.6357727,0.479599,6.2871399,2.0781555
			c0.6257629,0.6066437,1.1502075,1.2469025,1.5663147,1.935318l3.5479736-0.1127472v-1.9290009
			c0-0.7992706,0.6396179-1.4389191,1.4385071-1.4389191h6.8739624c0.7988586,0,1.4922485,0.6396484,1.5449219,1.4389191
			l0.1280823,1.6116638l4.1744385-0.1326752l0.1203918-1.4789886c0.0526733-0.7992706,0.7460632-1.4389191,1.5449524-1.4389191
			h6.8202209c0.7998047,0,1.4385071,0.6396484,1.4385071,1.4389191v1.1636047l2.8768921-0.0914154v-1.0721893
			c0-0.7992706,0.6397705-1.4389191,1.4385071-1.4389191h6.874115c0.7987366,0,1.4921265,0.6396484,1.5449219,1.4389191
			l0.0601501,0.7570038l4.3121643-0.1370392l0.0504761-0.6199646c0.0527954-0.7992706,0.7460632-1.4389191,1.5449219-1.4389191
			h6.820343c0.7998352,0,1.438385,0.6396484,1.438385,1.4389191v0.3067932l2.8770447-0.0914307v-0.2691193
			c0-0.7987366,0.6396179-1.4383698,1.4385071-1.4383698h11.9891968c0.7299194,0,1.3269043,0.5340576,1.42453,1.2354889
			l1.4206543-0.0451355c0.1161194-0.6777649,0.7008362-1.1882477,1.4130859-1.1903381l-0.4893799-15.3993073
			C405.8543396,8.7440948,405.371582,8.2801285,404.7923889,8.2801361"/>
		<path fill="#34344D" d="M323.3529968,24.2466431c-2.344635,0-4.6356201,0.479599-6.2880859,2.0781555
			c-0.7528992,0.7529602-1.360321,1.5577393-1.8039551,2.4420624l15.9454956-0.5067444
			c-0.4161072-0.6884155-0.9405518-1.3286743-1.5663147-1.935318
			C327.9887695,24.7262421,325.6968079,24.2466431,323.3529968,24.2466431"/>
		<path fill="#34344D" d="M343.0668945,24.7794495h-6.8739624c-0.7988892,0-1.4385071,0.6396484-1.4385071,1.4389191v1.9290009
			l9.9854736-0.317337l-0.1280823-1.6116638C344.5591431,25.4190979,343.8657532,24.7794495,343.0668945,24.7794495
			 M357.3999023,24.7794495h-6.8202209c-0.7988892,0-1.4922791,0.6396484-1.5449524,1.4389191l-0.1203918,1.4789886
			l9.9240723-0.3153839v-1.1636047C358.8384094,25.4190979,358.199707,24.7794495,357.3999023,24.7794495"/>
		<path fill="#34344D" d="M370.0279236,24.7794495h-6.874115c-0.7987366,0-1.4385071,0.6396484-1.4385071,1.4389191v1.0721893
			l9.9176941-0.3151855l-0.0601501-0.7570038C371.52005,25.4190979,370.8266602,24.7794495,370.0279236,24.7794495
			 M384.3609009,24.7794495h-6.820343c-0.7988586,0-1.4921265,0.6396484-1.5449219,1.4389191l-0.0504761,0.6199646
			l9.854126-0.3131714v-0.3067932C385.7992859,25.4190979,385.1607361,24.7794495,384.3609009,24.7794495"/>
		<path fill="#34344D" d="M402.1040344,24.7262421h-11.9891968c-0.7988892,0-1.4385071,0.6396332-1.4385071,1.4383698v0.2691193
			l14.8522339-0.4720001C403.4309387,25.2602997,402.8339539,24.7262421,402.1040344,24.7262421"/>
		<path fill="#34344D" d="M406.3623047,24.7262573c-0.7122498,0.0020905-1.2969666,0.5125732-1.4130859,1.1903381
			l0.3688354-0.011734c0.5943604-0.0189362,1.065094-0.5205688,1.0462952-1.1149292L406.3623047,24.7262573"/>
		<path fill="#FFFFFF" d="M319.7466125,22.776001c0.2597656,0,0.4667969,0.2070313,0.4667969,0.4658203v1.2255859
			c0,0.2587891-0.2070313,0.4658203-0.4667969,0.4658203H315.8638c-0.2587891,0-0.4658203-0.2070313-0.4658203-0.4658203V12.9737549
			c0-0.2587891,0.2070313-0.4663086,0.4658203-0.4663086h3.8828125c0.2597656,0,0.4667969,0.2075195,0.4667969,0.4663086v1.1386719
			c0,0.2592773-0.2070313,0.4663086-0.4667969,0.4663086h-1.8115234v3.3476563h1.2255859
			c0.2587891,0,0.4658203,0.2075195,0.4658203,0.4663086v0.862793c0,0.2587891-0.2070313,0.4658203-0.4658203,0.4658203h-1.2255859
			v3.0546875H319.7466125z"/>
		<path fill="#FFFFFF" d="M326.8413391,12.9737549v11.4936523c0,0.2587891-0.2070313,0.4658203-0.4658203,0.4658203h-1.2949219
			c-0.2587891,0-0.5175781-0.2070313-0.5693359-0.4487305l-1.4150391-6.2817383v6.2646484
			c0,0.2587891-0.2070313,0.4658203-0.4658203,0.4658203h-1.2255859c-0.2587891,0-0.4658203-0.2070313-0.4658203-0.4658203
			V12.9737549c0-0.2587891,0.2070313-0.4663086,0.4658203-0.4663086h1.3632813c0.2587891,0,0.5009766,0.2075195,0.5527344,0.4487305
			c1.2597656,6.0922852,1.2597656,6.0922852,1.3632813,6.5410156v-6.5234375c0-0.2587891,0.2070313-0.4663086,0.4658203-0.4663086
			h1.2255859C326.6343079,12.5074463,326.8413391,12.7149658,326.8413391,12.9737549z"/>
		<path fill="#FFFFFF" d="M336.0766907,24.9332275h-1.8642578c-0.1210938,0-0.2070313-0.2763672-0.2070313-0.6210938v-3.7451172
			c0-0.3452148-0.1210938-0.5175781-0.4316406-0.5175781h-0.4306641v4.0209961v0.3969727
			c0,0.2587891-0.2080078,0.4658203-0.4667969,0.4658203c-0.3623047,0-0.7939453,0-1.5185547,0
			c-0.2587891,0-0.4658203-0.2070313-0.4658203-0.4658203V12.9737549c0-0.2587891,0.2070313-0.4663086,0.4658203-0.4663086
			h2.4160156c0.7597656,0,1.484375,0.293457,2.0195313,0.8286133c0.5517578,0.5522461,0.8632813,1.3115234,0.8632813,2.1572266
			v1.5878906c0,0.7592773-0.3974609,1.4838867-0.8632813,2.019043c0.6386719,0.5004883,0.8632813,1.2597656,0.8632813,2.019043
			v3.1582031C336.4565735,24.6051025,336.7671204,24.9332275,336.0766907,24.9332275z M334.0054016,15.0792236
			c0-0.3452148-0.1035156-0.5351563-0.4316406-0.5351563h-0.4306641v3.46875h0.4306641
			c0.328125,0,0.4316406-0.1723633,0.4316406-0.5175781V15.0792236z"/>
		<path fill="#FFFFFF" d="M342.964386,15.0445557v7.4379883c0,0.8457031-0.3115234,1.4667969-0.8808594,2.019043
			c-0.5351563,0.5351563-1.2763672,0.6733398-2.0361328,0.6733398s-1.5009766-0.1381836-2.0361328-0.6733398
			c-0.5527344-0.5522461-0.8632813-1.1733398-0.8632813-2.019043v-7.4379883c0-0.828125,0.3105469-1.4667969,0.8632813-2.019043
			c0.5351563-0.5180664,1.2763672-0.6733398,2.0361328-0.6733398s1.5009766,0.1552734,2.0361328,0.6733398
			C342.6528625,13.5777588,342.964386,14.2164307,342.964386,15.0445557z M340.5132141,14.9063721
			c0-0.3452148-0.328125-0.3793945-0.4658203-0.3793945c-0.1210938,0-0.4482422,0.0341797-0.4482422,0.3793945v7.7143555
			c0,0.3452148,0.3271484,0.3969727,0.4482422,0.3969727c0.1376953,0,0.4658203-0.0517578,0.4658203-0.3969727V14.9063721z"/>
		<path fill="#FFFFFF" d="M349.3511047,12.9908447v9.4228516c0,0.828125-0.3115234,1.5356445-0.8632813,2.0878906
			c-0.5351563,0.5180664-1.2597656,0.6733398-2.0195313,0.6733398c-0.7587891,0-1.5009766-0.1552734-2.0185547-0.6733398
			c-0.5527344-0.5522461-0.8632813-1.2597656-0.8632813-2.0878906v-9.4228516c0-0.2587891,0.2070313-0.4658203,0.4658203-0.4658203
			h1.5019531c0.2587891,0,0.4658203,0.2070313,0.4658203,0.4658203v9.6298828c0,0.3452148,0.328125,0.3798828,0.4482422,0.3798828
			c0.1210938,0,0.4492188-0.034668,0.4492188-0.3798828v-9.6298828c0-0.2587891,0.2070313-0.4658203,0.4658203-0.4658203h1.5009766
			C349.1430969,12.5250244,349.3511047,12.7320557,349.3511047,12.9908447z"/>
		<path fill="#FFFFFF" d="M353.9770813,24.4674072c0,0.2587891-0.2070313,0.4658203-0.4658203,0.4658203H351.95755
			c-0.2587891,0-0.4658203-0.2070313-0.4658203-0.4658203v-9.8886719h-1.1728516
			c-0.2597656,0-0.4667969-0.2070313-0.4667969-0.4663086v-1.1386719c0-0.2587891,0.2070313-0.4663086,0.4667969-0.4663086
			h4.8320313c0.2587891,0,0.4658203,0.2075195,0.4658203,0.4663086v1.1386719c0,0.2592773-0.2070313,0.4663086-0.4658203,0.4663086
			h-1.1738281V24.4674072z"/>
		<path fill="#FFFFFF" d="M360.6216125,22.776001c0.2597656,0,0.4667969,0.2070313,0.4667969,0.4658203v1.2255859
			c0,0.2587891-0.2070313,0.4658203-0.4667969,0.4658203H356.7388c-0.2587891,0-0.4658203-0.2070313-0.4658203-0.4658203V12.9737549
			c0-0.2587891,0.2070313-0.4663086,0.4658203-0.4663086h3.8828125c0.2597656,0,0.4667969,0.2075195,0.4667969,0.4663086v1.1386719
			c0,0.2592773-0.2070313,0.4663086-0.4667969,0.4663086h-1.8115234v3.3476563h1.2255859
			c0.2587891,0,0.4658203,0.2075195,0.4658203,0.4663086v0.862793c0,0.2587891-0.2070313,0.4658203-0.4658203,0.4658203h-1.2255859
			v3.0546875H360.6216125z"/>
		<path fill="#FFFFFF" d="M371.0649719,12.9737549l-1.8984375,11.4936523
			c-0.0351563,0.2587891-0.2763672,0.4658203-0.5351563,0.4658203H366.95755c-0.2587891,0-0.5009766-0.2070313-0.5351563-0.4658203
			l-1.8984375-11.4936523c-0.0341797-0.2587891,0.1376953-0.4663086,0.3974609-0.4663086h1.6044922
			c0.2587891,0,0.4833984,0.2075195,0.5175781,0.4663086c0.6904297,7.2827148,0.6904297,7.2827148,0.7421875,7.7485352
			c0.0517578-0.4658203,0.0517578-0.4658203,0.7597656-7.7485352c0.0341797-0.2587891,0.2587891-0.4663086,0.5175781-0.4663086
			h1.6044922C370.9263,12.5074463,371.0991516,12.7149658,371.0649719,12.9737549z"/>
		<path fill="#FFFFFF" d="M376.1391907,22.776001c0.2597656,0,0.4667969,0.2070313,0.4667969,0.4658203v1.2255859
			c0,0.2587891-0.2070313,0.4658203-0.4667969,0.4658203h-3.8828125c-0.2587891,0-0.4658203-0.2070313-0.4658203-0.4658203
			V12.9737549c0-0.2587891,0.2070313-0.4663086,0.4658203-0.4663086h3.8828125c0.2597656,0,0.4667969,0.2075195,0.4667969,0.4663086
			v1.1386719c0,0.2592773-0.2070313,0.4663086-0.4667969,0.4663086h-1.8115234v3.3476563h1.2255859
			c0.2587891,0,0.4658203,0.2075195,0.4658203,0.4663086v0.862793c0,0.2587891-0.2070313,0.4658203-0.4658203,0.4658203h-1.2255859
			v3.0546875H376.1391907z"/>
		<path fill="#FFFFFF" d="M382.7163391,24.9332275h-1.8642578c-0.1201172,0-0.2070313-0.2763672-0.2070313-0.6210938v-3.7451172
			c0-0.3452148-0.1210938-0.5175781-0.4316406-0.5175781h-0.4306641v4.0209961v0.3969727
			c0,0.2587891-0.2080078,0.4658203-0.4667969,0.4658203c-0.3623047,0-0.7929688,0-1.5185547,0
			c-0.2587891,0-0.4658203-0.2070313-0.4658203-0.4658203V12.9737549c0-0.2587891,0.2070313-0.4663086,0.4658203-0.4663086
			h2.4160156c0.7597656,0,1.484375,0.293457,2.0195313,0.8286133c0.5517578,0.5522461,0.8632813,1.3115234,0.8632813,2.1572266
			v1.5878906c0,0.7592773-0.3974609,1.4838867-0.8632813,2.019043c0.6386719,0.5004883,0.8632813,1.2597656,0.8632813,2.019043
			v3.1582031C383.0962219,24.6051025,383.4067688,24.9332275,382.7163391,24.9332275z M380.64505,15.0792236
			c0-0.3452148-0.1035156-0.5351563-0.4316406-0.5351563h-0.4306641v3.46875h0.4306641
			c0.328125,0,0.4316406-0.1723633,0.4316406-0.5175781V15.0792236z"/>
		<path fill="#FFFFFF" d="M389.4995422,21.0157471v1.449707c0,0.7939453-0.2753906,1.4321289-0.8798828,2.019043
			c-0.4658203,0.4658203-1.1044922,0.6904297-2.0185547,0.6904297c-0.8808594,0-1.4501953-0.2070313-1.9335938-0.6904297
			c-0.6035156-0.5869141-0.8798828-1.2250977-0.8798828-2.019043v-1.5185547c0-0.2592773,0.2070313-0.4663086,0.4658203-0.4663086
			h1.4501953c0.2587891,0,0.4658203,0.2070313,0.4658203,0.4663086v1.6391602c0,0.3452148,0.328125,0.3798828,0.4316406,0.3798828
			c0.0859375,0,0.4140625-0.034668,0.4140625-0.3798828v-1.5185547c0-0.5351563-0.1552734-0.5869141-0.7421875-1.15625
			l-1.7949219-1.6220703c-0.4658203-0.4663086-0.6904297-0.9150391-0.6904297-1.6743164v-1.5532227
			c0-0.793457,0.2763672-1.449707,0.8798828-2.0361328c0.4833984-0.4658203,1.0527344-0.6733398,1.9501953-0.6733398
			c0.8808594,0,1.4501953,0.2075195,1.9335938,0.6733398c0.6035156,0.5864258,0.8798828,1.2426758,0.8798828,2.0361328v1.3291016
			c0,0.2587891-0.2070313,0.4658203-0.4658203,0.4658203h-1.484375c-0.2587891,0-0.4658203-0.2070313-0.4658203-0.4658203V14.94104
			c0-0.328125-0.2421875-0.3969727-0.3623047-0.3969727c-0.1552734,0-0.3798828,0.0688477-0.3798828,0.3798828v1.449707
			c0,0.5864258,0.328125,0.6899414,0.7421875,1.1044922l1.8291016,1.5703125
			C389.3960266,19.600708,389.4995422,20.0665283,389.4995422,21.0157471z"/>
		<path fill="#FFFFFF" d="M397.5434875,22.7071533c0.2597656,0,0.4667969,0.2070313,0.4667969,0.4658203v1.2944336
			c0,0.2587891-0.2070313,0.4658203-0.4667969,0.4658203h-3.8828125c-0.2587891,0-0.4658203-0.2070313-0.4658203-0.4658203
			V12.9737549c0-0.2587891,0.2070313-0.4663086,0.4658203-0.4663086h1.6054688c0.2587891,0,0.4658203,0.2075195,0.4658203,0.4663086
			v9.7333984H397.5434875z"/>
		<path fill="#FFFFFF" d="M403.0327454,22.776001c0.2597656,0,0.4667969,0.2070313,0.4667969,0.4658203v1.2255859
			c0,0.2587891-0.2070313,0.4658203-0.4667969,0.4658203h-3.8828125c-0.2587891,0-0.4658203-0.2070313-0.4658203-0.4658203
			V12.9737549c0-0.2587891,0.2070313-0.4663086,0.4658203-0.4663086h3.8828125c0.2597656,0,0.4667969,0.2075195,0.4667969,0.4663086
			v1.1386719c0,0.2592773-0.2070313,0.4663086-0.4667969,0.4663086h-1.8115234v3.3476563h1.2255859
			c0.2587891,0,0.4658203,0.2075195,0.4658203,0.4663086v0.862793c0,0.2587891-0.2070313,0.4658203-0.4658203,0.4658203h-1.2255859
			v3.0546875H403.0327454z"/>
	</g>
	<path fill="#00A399" d="M27.3349991,72.975708v4.4755859c0,2.4511719-0.8525391,4.4223633-2.7177734,6.234375
		c-1.4384766,1.4384766-3.4101563,2.1313477-6.2338867,2.1313477c-2.7177734,0-4.4760742-0.6396484-5.9677734-2.1313477
		c-1.8652344-1.8120117-2.7177734-3.7832031-2.7177734-6.234375v-4.6889648c0-0.7993164,0.6396484-1.4384766,1.4389648-1.4384766
		h4.4755859c0.7993164,0,1.4389648,0.6391602,1.4389648,1.4384766v5.0620117c0,1.065918,1.012207,1.1723633,1.3320313,1.1723633
		c0.2661133,0,1.2788086-0.1064453,1.2788086-1.1723633V73.135376c0-1.6518555-0.4799805-1.8115234-2.2915039-3.5698242
		l-5.5415039-5.0087891c-1.4384766-1.4389648-2.1313477-2.8242188-2.1313477-5.168457c0-0.1064453,0-4.7958984,0-4.7958984
		c0-2.4506836,0.8525391-4.4755859,2.7177734-6.2871094c1.4916992-1.4389648,3.25-2.078125,6.0209961-2.078125
		c2.7172852,0,4.4755859,0.6391602,5.9677734,2.078125c1.8647461,1.8115234,2.7172852,3.8364258,2.7172852,6.2871094v4.1030273
		c0,0.7993164-0.6391602,1.4389648-1.4384766,1.4389648h-4.5825195c-0.7993164,0-1.4384766-0.6396484-1.4384766-1.4389648
		v-4.4755859c0-1.0126953-0.7460938-1.2255859-1.1191406-1.2255859c-0.4794922,0-1.1723633,0.2128906-1.1723633,1.1723633v4.4755859
		c0,1.8115234,1.0126953,2.1313477,2.2915039,3.4101563l5.6479492,4.8486328
		C27.0151749,68.6060791,27.3349991,70.0450439,27.3349991,72.975708z"/>
	<path fill="#00A399" d="M47.0493546,48.1988525V77.291626c0,2.5576172-0.9589844,4.7421875-2.6640625,6.4472656
		c-1.6518555,1.5986328-3.8896484,2.078125-6.234375,2.078125c-2.3442383,0-4.6357422-0.4794922-6.234375-2.078125
		c-1.7050781-1.7050781-2.6640625-3.8896484-2.6640625-6.4472656V48.1988525c0-0.7993164,0.6396484-1.4389648,1.4389648-1.4389648
		h4.6352539c0.7993164,0,1.4389648,0.6396484,1.4389648,1.4389648v29.7319336c0,1.065918,1.012207,1.1723633,1.3852539,1.1723633
		s1.3852539-0.1064453,1.3852539-1.1723633V48.1988525c0-0.7993164,0.6396484-1.4389648,1.4389648-1.4389648h4.6357422
		C46.4097061,46.7598877,47.0493546,47.3995361,47.0493546,48.1988525z"/>
	<path fill="#00A399" d="M73.5312881,48.1988525v35.4335938c0,0.7988281-0.6396484,1.4384766-1.4389648,1.4384766h-3.6762695
		c-0.7993164,0-1.4389648-0.6396484-1.4389648-1.4384766V63.2247314c-0.159668,1.4384766-0.159668,1.4384766-2.4506836,20.4077148
		c-0.1069336,0.7988281-0.7993164,1.4384766-1.5986328,1.4384766h-2.8242188c-0.7993164,0-1.4916992-0.6396484-1.5981445-1.4384766
		l-2.4511719-20.4609375v20.4609375c0,0.7988281-0.6396484,1.4384766-1.4384766,1.4384766h-3.7299805
		c-0.7993164,0-1.4389648-0.6396484-1.4389648-1.4384766V48.1988525c0-0.7993164,0.6396484-1.4389648,1.4389648-1.4389648h6.8735352
		c0.7993164,0,1.4916992,0.6396484,1.5449219,1.4389648l2.1850586,27.4941406l2.237793-27.4941406
		c0.0532227-0.7993164,0.7460938-1.4389648,1.5449219-1.4389648h6.8203125
		C72.8916397,46.7598877,73.5312881,47.3995361,73.5312881,48.1988525z"/>
	<path fill="#00A399" d="M100.4927139,48.1988525v35.4335938c0,0.7988281-0.6396484,1.4384766-1.4384766,1.4384766h-3.6767578
		c-0.7993164,0-1.4384766-0.6396484-1.4384766-1.4384766V63.2247314c-0.1601563,1.4384766-0.1601563,1.4384766-2.4511719,20.4077148
		c-0.1064453,0.7988281-0.7993164,1.4384766-1.5986328,1.4384766h-2.8242188c-0.7988281,0-1.4916992-0.6396484-1.5981445-1.4384766
		l-2.4511719-20.4609375v20.4609375c0,0.7988281-0.6396484,1.4384766-1.4389648,1.4384766h-3.7294922
		c-0.7993164,0-1.4389648-0.6396484-1.4389648-1.4384766V48.1988525c0-0.7993164,0.6396484-1.4389648,1.4389648-1.4389648h6.8735352
		c0.7993164,0,1.4916992,0.6396484,1.5454102,1.4389648l2.1845703,27.4941406l2.237793-27.4941406
		c0.0532227-0.7993164,0.7460938-1.4389648,1.5454102-1.4389648h6.8203125
		C99.8530655,46.7598877,100.4927139,47.3995361,100.4927139,48.1988525z"/>
	<path fill="#00A399" d="M109.9238663,85.0709229h-4.6889648c-0.7993164,0-1.4389648-0.6396484-1.4389648-1.4384766V48.1451416
		c0-0.7988281,0.6396484-1.4384766,1.4389648-1.4384766h4.6889648c0.7993164,0,1.4384766,0.6396484,1.4384766,1.4384766v35.4873047
		C111.3623428,84.4312744,110.7231827,85.0709229,109.9238663,85.0709229z"/>
	<path fill="#00A399" d="M126.5474014,83.6324463c0,0.7988281-0.6391602,1.4384766-1.4384766,1.4384766h-4.7954102
		c-0.7993164,0-1.4389648-0.6396484-1.4389648-1.4384766V53.100708h-3.6230469
		c-0.7993164,0-1.4389648-0.6391602-1.4389648-1.4384766v-3.5170898c0-0.7988281,0.6396484-1.4384766,1.4389648-1.4384766h14.919426
		c0.7993164,0,1.4384766,0.6396484,1.4384766,1.4384766v3.5170898c0,0.7993164-0.6391602,1.4384766-1.4384766,1.4384766h-3.6235275
		V83.6324463z"/>
	<g>
		<path fill="#D31B5A" d="M118.1859512,25.2613525l-0.4476318-14.0849609
			c-0.0184326-0.5828857-0.5013428-1.046814-1.0803833-1.046814c-0.0114136,0-0.0228882,0.0001831-0.0344238,0.0005493
			L23.7507095,13.081604c-0.5942993,0.0189209-1.0651855,0.5205688-1.0462646,1.1149292L23.1959,29.6594849
			c0.0133057,0.4203491,0.2681274,0.7788696,0.6264648,0.946106c0.1385498,0.0646362,0.2925415,0.100708,0.4540405,0.100708
			c0.0114136,0,0.0229492-0.0001831,0.0344238-0.0005493l2.947998-0.093689l1.0258179-0.0325928l3.3414307-0.1061401
			l1.0023193-0.0318604l3.3887329-0.1077271l1.1934204-0.0379028l3.3886108-0.1077271l0.8115234-0.0257568l3.3887329-0.1077271
			l1.2646484-0.0401611l3.3890991-0.1077271l1.2033081-0.038208l3.1959229-0.1015625l1.3391113-0.0426025l3.2416992-0.1029663
			l1.6171265-0.0513916l3.5078125-0.1115112l4.1533813-0.131958l3.3885498-0.1077271l1.1934204-0.0379028l3.3779907-0.1073608
			l3.0550537-0.0971069l4.6740723-0.1484985l3.1887817-0.1013794l3.4125366-0.1084595l1.0948486-0.03479l3.3461914-0.1063232
			l1.5014038-0.0477295l3.3886108-0.107666l1.4800415-0.0470581l3.5078125-0.1114502l4.2720337-0.1357422l3.3885498-0.1077271
			l1.2357178-0.0392456l3.9664917-0.1260986c0.5941772-0.0189209,1.0650635-0.5205688,1.0461426-1.1149292L118.1859512,25.2613525z"
			/>
		<path fill="#0064A7" d="M17.9033585,29.3897705v8.9257813c0,1.1694336-0.4296875,2.2192383-1.2172852,3.0068359
			c-0.7397461,0.7158203-1.7182617,1.121582-2.7919922,1.121582h-3.3413086c-0.3579102,0-0.644043-0.2861328-0.644043-0.6445313
			V25.9058838c0-0.3583984,0.2861328-0.6445313,0.644043-0.6445313h3.3413086c1.0737305,0,2.0522461,0.4057617,2.7919922,1.121582
			C17.473671,27.1705322,17.9033585,28.2203369,17.9033585,29.3897705z M14.4907608,28.8170166
			c0-0.5009766-0.2387695-0.7397461-0.5966797-0.7397461h-0.5727539v11.5507813h0.5727539
			c0.4057617,0,0.5966797-0.2387695,0.5966797-0.7397461V28.8170166z"/>
		<path fill="#0064A7" d="M21.9126358,42.4439697h-2.1000977c-0.3579102,0-0.644043-0.2861328-0.644043-0.6445313V25.9058838
			c0-0.3583984,0.2861328-0.6445313,0.644043-0.6445313h2.1000977c0.3579102,0,0.6445313,0.2861328,0.6445313,0.6445313v15.8935547
			C22.5571671,42.1578369,22.270546,42.4439697,21.9126358,42.4439697z"/>
		<path fill="#0064A7" d="M23.8223572,30.6055756v0.335495c0,1.0503082,0.3100128,1.6708679,0.954483,2.3149261l2.4819641,2.2431793
			c0.8111038,0.7875824,1.0258331,0.8593445,1.0258331,1.5990906v2.1000519c0,0.4770508-0.4531174,0.5248871-0.5727158,0.5248871
			c-0.1429749,0-0.5960999-0.0478363-0.5960999-0.5248871v-2.2670746c0-0.3578491-0.2866287-0.6444855-0.6446075-0.6444855
			h-2.004921c-0.3578415,0-0.6439362,0.2866364-0.6439362,0.6444855v2.1001892c0,1.0975952,0.3817673,1.9808502,1.2167892,2.7919617
			c0.668396,0.668396,1.455986,0.9546204,2.6727753,0.9546204c1.2651672,0,2.1480331-0.3101501,2.7925034-0.9546204
			c0.8350296-0.8111115,1.2167969-1.6943665,1.2167969-2.7919617v-2.0049286c0-1.3124695-0.1431122-1.9565277-0.9067841-2.7201996
			l-2.5298004-2.1719513c-0.5715256-0.5715332-1.0239487-0.7151947-1.0258255-1.5222626l-2.9479904,0.093689
			c-0.0114975,0.0003662-0.0229797,0.0005493-0.0344009,0.0005493
			C24.1149216,30.7063293,23.9608994,30.6702423,23.8223572,30.6055756 M31.6260757,30.4733124l-3.3414383,0.1061859v0.0514374
			c0,0.3579865,0.2866287,0.6440735,0.6446152,0.6440735h2.0522156c0.3579865,0,0.6446075-0.286087,0.6446075-0.6440735V30.4733124"
			/>
		<path fill="#0064A7" d="M36.0171432,30.3337555l-3.3887405,0.1076965v8.5899811
			c0,1.169342,0.4292068,2.0282898,1.2167892,2.8158875c0.7158356,0.7158203,1.7182922,0.9306946,2.7685852,0.9306946
			c1.0498962,0,2.0522156-0.2148743,2.7680511-0.9306946c0.7875824-0.7875977,1.2173309-1.6465454,1.2173309-2.8158875v-2.7207489
			c0-0.3579865-0.2866364-0.6440735-0.6444855-0.6440735h-2.1001892c-0.3578491,0-0.6439362,0.286087-0.6439362,0.6440735v2.9115601
			c0,0.5009613-0.4297333,0.5489349-0.5967712,0.5489349c-0.1669006,0-0.5966339-0.0479736-0.5966339-0.5489349V30.3337555
			 M40.5991592,30.1881409l-3.3886108,0.1076965v1.3375549c0,0.3579865,0.286087,0.6440735,0.6439362,0.6440735h2.1001892
			c0.3578491,0,0.6444855-0.286087,0.6444855-0.6440735V30.1881409"/>
		<path fill="#0064A7" d="M49.4531784,29.9067688l-3.3891449,0.1076965V39.24617
			c0,0.4770355-0.453125,0.5489197-0.6440735,0.5489197c-0.167038,0-0.6205597-0.0718842-0.6205597-0.5489197V30.054657
			l-3.3887329,0.1076965v8.8929901c0,1.1693573,0.4297333,2.0283051,1.1934052,2.7919769
			c0.7397461,0.7397461,1.7655945,0.9306946,2.8158875,0.9306946c1.0497589,0,2.0761414-0.1909485,2.8158875-0.9306946
			c0.7875824-0.7636719,1.2173309-1.6226196,1.2173309-2.7919769V29.9067688"/>
		<path fill="#0064A7" d="M58.4331894,29.6213837l-3.2417145,0.1030121c-0.6089783,6.2655945-0.6180267,6.3469238-0.679245,6.896286
			c-0.0606232-0.5481567-0.0696106-0.6293793-0.6598206-6.8537292l-3.1959534,0.1015778L52.627037,41.799469
			c0.0478516,0.3583984,0.3817749,0.6444855,0.7397614,0.6444855h2.3149261c0.3578491,0,0.6923065-0.286087,0.7397461-0.6444855
			L58.4331894,29.6213837"/>
		<path fill="#0064A7" d="M63.5581436,29.4585114l-3.5077972,0.1114807V41.799469
			c0,0.3583984,0.286087,0.6444855,0.6440735,0.6444855h5.3695984c0.3578491,0,0.6444702-0.286087,0.6444702-0.6444855v-1.6943665
			c0-0.3578491-0.2866211-0.6440735-0.6444702-0.6440735h-2.5058746v-4.2240295h1.6943665
			c0.3583832,0,0.6444702-0.2866211,0.6444702-0.6446075v-1.1934052c0-0.3578491-0.286087-0.6439362-0.6444702-0.6439362h-1.6943665
			V29.4585114"/>
		<path fill="#0064A7" d="M75.6714859,29.0735474l-3.3779907,0.1073608v2.977356
			c0,0.4770508-0.1435089,0.7158356-0.5966339,0.7158356H71.10009v-3.6552734l-3.3885956,0.1076965V41.799469
			c0,0.3583984,0.286087,0.6444855,0.6440582,0.6444855c1.0023346,0,1.5991058,0,2.1000671,0
			c0.3578491,0,0.6444702-0.286087,0.6444702-0.6444855v-0.5487976v-5.5605469h0.5967712
			c0.4296112,0,0.5966339,0.2386475,0.5966339,0.7162323V41.58461c0,0.4775696,0.1192017,0.8593445,0.2861023,0.8593445h2.5776215
			c0.9546204,0,0.5248871-0.4536591,0.5248871-0.9067841v-4.3671417c0-1.050293-0.3105469-2.1000519-1.1932678-2.792511
			c0.6444702-0.7397461,1.1932678-1.7422028,1.1932678-2.7919617v-2.1957397
			C75.682106,29.2833862,75.6785355,29.1778717,75.6714859,29.0735474"/>
		<path fill="#0064A7" d="M80.4556046,37.3131409l0.620163-6.7300415l0.6205444,6.7300415H80.4556046 M83.4006271,28.8279266
			l-4.6740875,0.1485443l-2.1371155,12.822998c-0.0717621,0.3583984,0.1909485,0.6444855,0.5248871,0.6444855h2.2196503
			c0.3340607,0,0.6201477-0.2388,0.7158203-0.5487976l0.167038-2.0283051h1.7182922l0.1670227,2.0283051
			c0.0717621,0.3099976,0.3817749,0.5487976,0.6923218,0.5487976H85.01371c0.3579712,0,0.5966339-0.286087,0.5487976-0.6444855
			L83.4006271,28.8279266"/>
		<path fill="#0064A7" d="M90.0019455,39.628067v-4.7016144h0.6206818c0.3578491,0,0.6919098,0.2625732,0.6919098,0.7401581
			v3.2217102c0,0.5009613-0.1670227,0.7397461-0.7158203,0.7397461H90.0019455 M94.4429398,28.477005l-3.3461609,0.1063385
			c0.0175934,0.0702209,0.0268097,0.1480865,0.0268097,0.2336273v2.9595337c0,0.4296112-0.2148743,0.7158356-0.6685333,0.7158356
			h-0.4531097v-3.8742065l-3.4125366,0.1084442V41.799469c0,0.3583984,0.2861023,0.6444855,0.6440735,0.6444855h3.3652344
			c1.0497589,0,2.1953278-0.4056854,2.9350739-1.121521c0.7636719-0.7636719,1.1932831-1.8374786,1.1932831-3.0068359v-1.8853149
			c0-1.0742188-0.5488129-2.0766754-1.2412567-2.8403473c0.5732574-0.7158356,1.050293-1.6224823,1.050293-2.5771027v-1.6230164
			C94.5361099,29.0786743,94.5044022,28.7727661,94.4429398,28.477005"/>
		<path fill="#0064A7" d="M99.3330002,28.3215942l-3.3886108,0.1076965V41.799469
			c0,0.3583984,0.2861023,0.6444855,0.6440735,0.6444855H98.68853c0.3578491,0,0.6444702-0.286087,0.6444702-0.6444855V28.3215942"
			/>
		<path fill="#0064A7" d="M104.3208389,28.1630859l-3.5077972,0.1114807V41.799469
			c0,0.3583984,0.286087,0.6444855,0.6440735,0.6444855h5.3695984c0.3578491,0,0.6444702-0.286087,0.6444702-0.6444855v-1.7896423
			c0-0.3578491-0.2866211-0.6444702-0.6444702-0.6444702h-2.5058746V28.1630859"/>
		<path fill="#0064A7" d="M111.9814377,27.919632l-3.3885956,0.1076965V41.799469
			c0,0.3583984,0.286087,0.6444855,0.6440735,0.6444855h2.1000519c0.3578491,0,0.6444702-0.286087,0.6444702-0.6444855V27.919632"/>
		<path fill="#0064A7" d="M120.4058609,25.2613373h-2.2199097l0.0437927,1.3780365
			c0.0189514,0.5943604-0.4519196,1.095993-1.0461273,1.1149292l-3.966507,0.1260529
			c0.1175537,0.1493683,0.3001404,0.2447052,0.506546,0.2447052h1.6230164v13.674408
			c0,0.3583984,0.2862244,0.6444855,0.6440735,0.6444855h2.1480255c0.3578491,0,0.6444702-0.286087,0.6444702-0.6444855V28.125061
			h1.6226196c0.3578491,0,0.6444702-0.286499,0.6444702-0.6444855v-1.5746307
			C121.0503311,25.5474243,120.76371,25.2613373,120.4058609,25.2613373"/>
		<path fill="#0064A7" d="M128.1382141,41.7994385c0,0.3583984-0.2861252,0.6445313-0.6440353,0.6445313h-2.0288086
			c-0.3579102,0-0.644043-0.2861328-0.644043-0.6445313V35.28479l-3.0786133-9.402832
			c-0.0957031-0.3344727,0.0952148-0.6206055,0.453125-0.6206055h2.0527344c0.3579102,0,0.7158203,0.2861328,0.8110352,0.6206055
			l1.4321289,5.1069336l1.4316406-5.1069336c0.0956955-0.3344727,0.4536057-0.6206055,0.8115158-0.6206055h2.0522461
			c0.3579102,0,0.5493164,0.2861328,0.4536133,0.6206055l-3.1025391,9.4501953V41.7994385z"/>
		<path fill="#D31B5A" d="M27.7836838,28.0772247c-0.2147369,0-0.5248795,0.0958099-0.5248795,0.5250092v2.004776
			c0,0.0016937,0,0.0034027,0.0000076,0.0050812l1.0258255-0.0325928v-1.9533539
			C28.2846375,28.1730347,27.9507141,28.0772247,27.7836838,28.0772247 M36.6137772,28.053299
			c-0.1669006,0-0.5966339,0.0478363-0.5966339,0.5489349v1.7315216l1.1934052-0.0379181v-1.6936035
			C37.2105484,28.1011353,36.7808151,28.053299,36.6137772,28.053299 M45.41996,28.053299
			c-0.167038,0-0.6205597,0.0478363-0.6205597,0.5254211v1.4759369l1.2646332-0.0401917v-1.4357452
			C46.0640335,28.1011353,45.6109085,28.053299,45.41996,28.053299 M116.6579208,10.1295776
			c-0.0114288,0-0.0229034,0.0001831-0.0343933,0.0005493l-92.8727951,2.9514694
			c-0.5943527,0.0189514-1.0652084,0.5205841-1.0462646,1.1149368l0.4914246,15.4629822
			c0.013298,0.4203339,0.2681351,0.7788239,0.6264648,0.9460602v-1.8119965c0-1.0981293,0.3817673-2.0049133,1.2167892-2.8164215
			c0.668396-0.6440735,1.455986-0.9306946,2.6966934-0.9306946c1.2173309,0,2.004921,0.2866211,2.6729126,0.9306946
			c0.8354263,0.8115082,1.2173233,1.7182922,1.2173233,2.8164215v1.6797333l1.002327-0.0318604v-1.6478729
			c0-1.1694794,0.4292068-2.0527496,1.2167892-2.8164215c0.7158356-0.7158203,1.7182922-0.9306946,2.7685852-0.9306946
			c1.0498962,0,2.0522156,0.2148743,2.7680511,0.9306946c0.7875824,0.7636719,1.2173309,1.6469421,1.2173309,2.8164215v1.3945618
			l0.8115082-0.0257874v-1.3926849c0-1.1455688,0.4297333-2.0288391,1.1934052-2.792511
			c0.7397461-0.7158203,1.7655945-0.9306946,2.8158875-0.9306946c1.0497589,0,2.0761414,0.2148743,2.8158875,0.9306946
			c0.7875824,0.7636719,1.2173309,1.6469421,1.2173309,2.792511v1.1371002l1.2032776-0.0382385l-0.65448-3.9625854
			c-0.0478363-0.3585205,0.1909485-0.6446075,0.5487976-0.6446075h2.2197876c0.3578491,0,0.667984,0.286087,0.7158203,0.6446075
			c0.1419983,1.4979553,0.2628937,2.773407,0.3660278,3.8610077l1.3390656-0.0425568
			c0.1048126-1.078476,0.227356-2.3395538,0.371048-3.8184509c0.0478363-0.3585205,0.3579865-0.6446075,0.7158356-0.6446075
			h2.2197876c0.3578491,0,0.5960999,0.286087,0.5487976,0.6446075l-0.6137543,3.7154388l1.617157-0.0513916v-3.6640472
			c0-0.3585205,0.286087-0.6446075,0.6440735-0.6446075h5.3695984c0.3578491,0,0.6444702,0.286087,0.6444702,0.6446075v1.5746307
			c0,0.3579865-0.2866211,0.6444855-0.6444702,0.6444855h-2.5058746v1.3334503l4.1533508-0.1319885v-3.420578
			c0-0.3585205,0.286087-0.6446075,0.6440582-0.6446075h3.3413086c1.0497589,0,2.0522156,0.4058228,2.7919769,1.1455688
			c0.6941681,0.6941681,1.1123047,1.624649,1.1826477,2.6666412l3.0550537-0.0970764l0.511734-3.0705261
			c0.0478516-0.3585205,0.4058228-0.6446075,0.7397614-0.6446075h1.0742035h0.0235291h1.0742035
			c0.3578491,0,0.691925,0.286087,0.7636719,0.6446075l0.4869843,2.9219818l3.1887817-0.1013489v-2.8206329
			c0-0.3585205,0.2861023-0.6446075,0.6440735-0.6446075h3.1742859c1.0497589,0,2.1953278,0.4058228,2.9350739,1.1455688
			c0.5562439,0.5562439,0.9352417,1.2769165,1.1000977,2.0700989l1.5014496-0.0477142v-2.5233459
			c0-0.3585205,0.2861023-0.6446075,0.6440735-0.6446075H98.68853c0.3578491,0,0.6444702,0.286087,0.6444702,0.6446075v2.4156494
			l1.4800415-0.0470276v-2.3686218c0-0.3585205,0.286087-0.6446075,0.6440735-0.6446075h2.2196503
			c0.3579712,0,0.6440735,0.286087,0.6440735,0.6446075v2.2571411l4.2720032-0.1357574v-2.1213837
			c0-0.3585205,0.286087-0.6446075,0.6440735-0.6446075h2.1000519c0.3578491,0,0.6444702,0.286087,0.6444702,0.6446075v2.0136871
			l1.235672-0.0392761c-0.0862732-0.1095886-0.1375275-0.2482758-0.1375275-0.3997803v-1.5746307
			c0-0.3585205,0.2862244-0.6446075,0.6440735-0.6446075h4.4622955l-0.4476318-14.0849457
			C117.7198715,10.5935364,117.2369919,10.12957,116.6579208,10.1295776"/>
		<path fill="#333360" d="M27.7358398,25.046463c-1.2407074,0-2.0282974,0.2866211-2.6966934,0.9306946
			c-0.835022,0.8115082-1.2167892,1.7182922-1.2167892,2.8164215v1.8119965
			c0.1385422,0.0646667,0.2925644,0.1007538,0.4540634,0.1007538c0.0114212,0,0.0229034-0.0001831,0.0344009-0.0005493
			l2.9479904-0.093689c-0.0000076-0.0016785-0.0000076-0.0033875-0.0000076-0.0050812v-2.004776
			c0-0.4291992,0.3101425-0.5250092,0.5248795-0.5250092c0.1670303,0,0.5009537,0.0958099,0.5009537,0.5489197v1.9533539
			l3.3414383-0.1061859v-1.6797333c0-1.0981293-0.381897-2.0049133-1.2173233-2.8164215
			C29.7407608,25.3330841,28.9531708,25.046463,27.7358398,25.046463"/>
		<path fill="#333360" d="M36.6137772,25.046463c-1.050293,0-2.0527496,0.2148743-2.7685852,0.9306946
			c-0.7875824,0.7636719-1.2167892,1.6469421-1.2167892,2.8164215v1.6478729l3.3887405-0.1076965v-1.7315216
			c0-0.5010986,0.4297333-0.5489349,0.5966339-0.5489349c0.167038,0,0.5967712,0.0478363,0.5967712,0.5489349v1.6936035
			l3.3886108-0.1076965v-1.3945618c0-1.1694794-0.4297485-2.0527496-1.2173309-2.8164215
			C38.6659927,25.2613373,37.6636734,25.046463,36.6137772,25.046463"/>
		<path fill="#333360" d="M45.41996,25.046463c-1.050293,0-2.0761414,0.2148743-2.8158875,0.9306946
			c-0.7636719,0.7636719-1.1934052,1.6469421-1.1934052,2.792511v1.3926849l3.3887329-0.1076965v-1.4759369
			c0-0.4775848,0.4535217-0.5254211,0.6205597-0.5254211c0.1909485,0,0.6440735,0.0478363,0.6440735,0.5254211v1.4357452
			l3.3891449-0.1076965v-1.1371002c0-1.1455688-0.4297485-2.0288391-1.2173309-2.792511
			C47.4961014,25.2613373,46.4697189,25.046463,45.41996,25.046463"/>
		<path fill="#D31B5A" d="M71.6968613,28.0772247H71.10009v1.1416016l1.1934052-0.0379181v-0.3639374
			C72.2934952,28.33992,72.1499863,28.0772247,71.6968613,28.0772247"/>
		<path fill="#333360" d="M52.7705612,25.2613373h-2.2197876c-0.3578491,0-0.5966339,0.286087-0.5487976,0.6446075
			l0.65448,3.9625854l3.1959534-0.1015778c-0.1031342-1.0876007-0.2240295-2.3630524-0.3660278-3.8610077
			C53.4385452,25.5474243,53.1284103,25.2613373,52.7705612,25.2613373 M58.4981461,25.2613373h-2.2197876
			c-0.3578491,0-0.6679993,0.286087-0.7158356,0.6446075c-0.143692,1.4788971-0.2662354,2.739975-0.371048,3.8184509
			l3.2417145-0.1030121l0.6137543-3.7154388C59.0942459,25.5474243,58.8559952,25.2613373,58.4981461,25.2613373"/>
		<path fill="#333360" d="M66.0640182,25.2613373h-5.3695984c-0.3579865,0-0.6440735,0.286087-0.6440735,0.6446075v3.6640472
			l3.5077972-0.1114807V28.125061h2.5058746c0.3578491,0,0.6444702-0.286499,0.6444702-0.6444855v-1.5746307
			C66.7084885,25.5474243,66.4218674,25.2613373,66.0640182,25.2613373"/>
		<path fill="#333360" d="M71.6968613,25.2613373h-3.3413086c-0.3579712,0-0.6440582,0.286087-0.6440582,0.6446075v3.420578
			l3.3885956-0.1076965v-1.1416016h0.5967712c0.453125,0,0.5966339,0.2626953,0.5966339,0.7397461v0.3639374l3.3779907-0.1073608
			c-0.070343-1.0419922-0.4884796-1.9724731-1.1826477-2.6666412C73.7490768,25.66716,72.7466202,25.2613373,71.6968613,25.2613373"
			/>
		<path fill="#333360" d="M82.149971,25.2613373h-1.0742035h-0.0235291H79.978035
			c-0.3339386,0-0.6919098,0.286087-0.7397614,0.6446075l-0.511734,3.0705261l4.6740875-0.1485443l-0.4869843-2.9219818
			C82.8418961,25.5474243,82.5078201,25.2613373,82.149971,25.2613373"/>
		<path fill="#D31B5A" d="M90.4077682,28.1011353h-0.4058228v0.5169983l1.0948334-0.03479
			C91.0162125,28.2619781,90.7600021,28.1011353,90.4077682,28.1011353"/>
		<path fill="#333360" d="M90.4077682,25.2613373h-3.1742859c-0.3579712,0-0.6440735,0.286087-0.6440735,0.6446075v2.8206329
			l3.4125366-0.1084442v-0.5169983h0.4058228c0.3522339,0,0.6084442,0.1608429,0.6890106,0.4822083l3.3461609-0.1063385
			c-0.164856-0.7931824-0.5438538-1.513855-1.1000977-2.0700989C92.603096,25.66716,91.4575272,25.2613373,90.4077682,25.2613373"/>
		<path fill="#333360" d="M98.68853,25.2613373h-2.1000671c-0.3579712,0-0.6440735,0.286087-0.6440735,0.6446075v2.5233459
			l3.3886108-0.1076965v-2.4156494C99.3330002,25.5474243,99.0463791,25.2613373,98.68853,25.2613373"/>
		<path fill="#333360" d="M103.6767654,25.2613373h-2.2196503c-0.3579865,0-0.6440735,0.286087-0.6440735,0.6446075v2.3686218
			l3.5077972-0.1114807v-2.2571411C104.3208389,25.5474243,104.0347366,25.2613373,103.6767654,25.2613373"/>
		<path fill="#333360" d="M111.3369675,25.2613373h-2.1000519c-0.3579865,0-0.6440735,0.286087-0.6440735,0.6446075v2.1213837
			l3.3885956-0.1076965v-2.0136871C111.9814377,25.5474243,111.6948166,25.2613373,111.3369675,25.2613373"/>
		<path fill="#333360" d="M118.1859512,25.2613373h-4.4622955c-0.3578491,0-0.6440735,0.286087-0.6440735,0.6446075v1.5746307
			c0,0.1515045,0.0512543,0.2901917,0.1375275,0.3997803l3.966507-0.1260529
			c0.5942078-0.0189362,1.0650787-0.5205688,1.0461273-1.1149292L118.1859512,25.2613373"/>
		<path fill="#FFFFFF" d="M34.3125381,24.6256104c0.2587891,0,0.4658203,0.2070313,0.4658203,0.4658203v1.2255859
			c0,0.2587891-0.2070313,0.4658203-0.4658203,0.4658203h-3.8828125c-0.2592773,0-0.4663086-0.2070313-0.4663086-0.4658203
			V14.8233643c0-0.2587891,0.2070313-0.4663086,0.4663086-0.4663086h3.8828125c0.2587891,0,0.4658203,0.2075195,0.4658203,0.4663086
			v1.1386719c0,0.2592773-0.2070313,0.4663086-0.4658203,0.4663086h-1.8120117v3.3476563h1.2250977
			c0.2587891,0,0.4658203,0.2075195,0.4658203,0.4663086v0.862793c0,0.2587891-0.2070313,0.4658203-0.4658203,0.4658203h-1.2250977
			v3.0546875H34.3125381z"/>
		<path fill="#FFFFFF" d="M41.4067764,14.8233643v11.4936523c0,0.2587891-0.2070313,0.4658203-0.4658203,0.4658203h-1.2944336
			c-0.2587891,0-0.5180664-0.2070313-0.5698242-0.4487305l-1.4150391-6.2817383v6.2646484
			c0,0.2587891-0.2070313,0.4658203-0.4658203,0.4658203h-1.2250977c-0.2592773,0-0.4663086-0.2070313-0.4663086-0.4658203
			V14.8233643c0-0.2587891,0.2070313-0.4663086,0.4663086-0.4663086h1.3632813c0.2587891,0,0.5004883,0.2075195,0.5522461,0.4487305
			c1.2597656,6.0922852,1.2597656,6.0922852,1.3632813,6.5410156v-6.5234375c0-0.2587891,0.2070313-0.4663086,0.4658203-0.4663086
			h1.2255859C41.1997452,14.3570557,41.4067764,14.5645752,41.4067764,14.8233643z"/>
		<path fill="#FFFFFF" d="M50.6416397,26.7828369h-1.8642578c-0.1206055,0-0.2070313-0.2763672-0.2070313-0.6210938V22.416626
			c0-0.3452148-0.1206055-0.5175781-0.4311523-0.5175781h-0.4316406v4.0209961v0.3969727
			c0,0.2587891-0.2070313,0.4658203-0.4658203,0.4658203c-0.3623047,0-0.7939453,0-1.5185547,0
			c-0.2592773,0-0.4663086-0.2070313-0.4663086-0.4658203V14.8233643c0-0.2587891,0.2070313-0.4663086,0.4663086-0.4663086
			h2.4160156c0.7592773,0,1.4838867,0.293457,2.019043,0.8286133c0.5522461,0.5522461,0.862793,1.3115234,0.862793,2.1572266
			v1.5878906c0,0.7592773-0.3969727,1.4838867-0.862793,2.019043c0.6386719,0.5004883,0.862793,1.2597656,0.862793,2.019043
			v3.1582031C51.0210342,26.4547119,51.3315811,26.7828369,50.6416397,26.7828369z M48.5703506,16.928833
			c0-0.3452148-0.1035156-0.5351563-0.4311523-0.5351563h-0.4316406v3.46875h0.4316406
			c0.3276367,0,0.4311523-0.1723633,0.4311523-0.5175781V16.928833z"/>
		<path fill="#FFFFFF" d="M57.5288467,16.894165v7.4379883c0,0.8457031-0.3105469,1.4667969-0.8803711,2.019043
			c-0.534668,0.5351563-1.2768555,0.6733398-2.0361328,0.6733398s-1.5014648-0.1381836-2.0366211-0.6733398
			c-0.5522461-0.5522461-0.862793-1.1733398-0.862793-2.019043V16.894165c0-0.828125,0.3105469-1.4667969,0.862793-2.019043
			c0.5351563-0.5180664,1.2773438-0.6733398,2.0366211-0.6733398s1.5014648,0.1552734,2.0361328,0.6733398
			C57.2182999,15.4273682,57.5288467,16.06604,57.5288467,16.894165z M55.0781631,16.7559814
			c0-0.3452148-0.3276367-0.3793945-0.4658203-0.3793945c-0.1206055,0-0.4487305,0.0341797-0.4487305,0.3793945v7.7143555
			c0,0.3452148,0.328125,0.3969727,0.4487305,0.3969727c0.1381836,0,0.4658203-0.0517578,0.4658203-0.3969727V16.7559814z"/>
		<path fill="#FFFFFF" d="M63.9155655,14.8404541v9.4228516c0,0.828125-0.3105469,1.5356445-0.862793,2.0878906
			c-0.5351563,0.5180664-1.2597656,0.6733398-2.019043,0.6733398c-0.7597656,0-1.5014648-0.1552734-2.0195313-0.6733398
			c-0.5522461-0.5522461-0.862793-1.2597656-0.862793-2.0878906v-9.4228516c0-0.2587891,0.2070313-0.4658203,0.4658203-0.4658203
			h1.5014648c0.2592773,0,0.4663086,0.2070313,0.4663086,0.4658203v9.6298828c0,0.3452148,0.3276367,0.3798828,0.4487305,0.3798828
			c0.1206055,0,0.4487305-0.034668,0.4487305-0.3798828v-9.6298828c0-0.2587891,0.2070313-0.4658203,0.4658203-0.4658203h1.5014648
			C63.7085342,14.3746338,63.9155655,14.581665,63.9155655,14.8404541z"/>
		<path fill="#FFFFFF" d="M68.5420303,26.3170166c0,0.2587891-0.2070313,0.4658203-0.4658203,0.4658203h-1.5532227
			c-0.2587891,0-0.4663086-0.2070313-0.4663086-0.4658203v-9.8886719h-1.1733398
			c-0.2587891,0-0.4658203-0.2070313-0.4658203-0.4663086v-1.1386719c0-0.2587891,0.2070313-0.4663086,0.4658203-0.4663086
			h4.8320313c0.2587891,0,0.4663086,0.2075195,0.4663086,0.4663086v1.1386719c0,0.2592773-0.2075195,0.4663086-0.4663086,0.4663086
			h-1.1733398V26.3170166z"/>
		<path fill="#FFFFFF" d="M75.1875381,24.6256104c0.2587891,0,0.4658203,0.2070313,0.4658203,0.4658203v1.2255859
			c0,0.2587891-0.2070313,0.4658203-0.4658203,0.4658203h-3.8828125c-0.2592773,0-0.4663086-0.2070313-0.4663086-0.4658203
			V14.8233643c0-0.2587891,0.2070313-0.4663086,0.4663086-0.4663086h3.8828125c0.2587891,0,0.4658203,0.2075195,0.4658203,0.4663086
			v1.1386719c0,0.2592773-0.2070313,0.4663086-0.4658203,0.4663086h-1.8120117v3.3476563h1.2250977
			c0.2587891,0,0.4658203,0.2075195,0.4658203,0.4663086v0.862793c0,0.2587891-0.2070313,0.4658203-0.4658203,0.4658203h-1.2250977
			v3.0546875H75.1875381z"/>
		<path fill="#FFFFFF" d="M83.1450577,26.3170166c0,0.2587891-0.2070313,0.4658203-0.4658203,0.4658203h-1.5532227
			c-0.2587891,0-0.4663086-0.2070313-0.4663086-0.4658203v-9.8886719h-1.1733398
			c-0.2587891,0-0.4658203-0.2070313-0.4658203-0.4663086v-1.1386719c0-0.2587891,0.2070313-0.4663086,0.4658203-0.4663086
			h4.8320313c0.2587891,0,0.4663086,0.2075195,0.4663086,0.4663086v1.1386719c0,0.2592773-0.2075195,0.4663086-0.4663086,0.4663086
			h-1.1733398V26.3170166z"/>
		<path fill="#FFFFFF" d="M91.1020889,16.894165v7.4379883c0,0.8457031-0.3105469,1.4667969-0.8803711,2.019043
			c-0.534668,0.5351563-1.2768555,0.6733398-2.0361328,0.6733398s-1.5014648-0.1381836-2.0366211-0.6733398
			c-0.5522461-0.5522461-0.862793-1.1733398-0.862793-2.019043V16.894165c0-0.828125,0.3105469-1.4667969,0.862793-2.019043
			c0.5351563-0.5180664,1.2773438-0.6733398,2.0366211-0.6733398s1.5014648,0.1552734,2.0361328,0.6733398
			C90.7915421,15.4273682,91.1020889,16.06604,91.1020889,16.894165z M88.6514053,16.7559814
			c0-0.3452148-0.3276367-0.3793945-0.4658203-0.3793945c-0.1206055,0-0.4487305,0.0341797-0.4487305,0.3793945v7.7143555
			c0,0.3452148,0.328125,0.3969727,0.4487305,0.3969727c0.1381836,0,0.4658203-0.0517578,0.4658203-0.3969727V16.7559814z"/>
		<path fill="#FFFFFF" d="M98.645546,26.3170166c0,0.2587891-0.2070313,0.4658203-0.4658203,0.4658203H96.626503
			c-0.2587891,0-0.4663086-0.2070313-0.4663086-0.4658203v-9.8886719h-1.1733398
			c-0.2587891,0-0.4658203-0.2070313-0.4658203-0.4663086v-1.1386719c0-0.2587891,0.2070313-0.4663086,0.4658203-0.4663086
			h4.8320313c0.2587891,0,0.4663086,0.2075195,0.4663086,0.4663086v1.1386719c0,0.2592773-0.2075195,0.4663086-0.4663086,0.4663086
			H98.645546V26.3170166z"/>
		<path fill="#FFFFFF" d="M106.9131241,14.8233643v11.4936523c0,0.2587891-0.2070313,0.4658203-0.4658203,0.4658203h-1.6049805
			c-0.2587891,0-0.4658203-0.2070313-0.4658203-0.4658203v-4.7460938h-0.8974609v4.7460938
			c0,0.2587891-0.2070313,0.4658203-0.4658203,0.4658203h-1.6049805c-0.2592773,0-0.4663086-0.2070313-0.4663086-0.4658203
			V14.8233643c0-0.2587891,0.2070313-0.4663086,0.4663086-0.4663086h1.6049805c0.2587891,0,0.4658203,0.2075195,0.4658203,0.4663086
			v4.9526367h0.8974609v-4.9526367c0-0.2587891,0.2070313-0.4663086,0.4658203-0.4663086h1.6049805
			C106.7060928,14.3570557,106.9131241,14.5645752,106.9131241,14.8233643z"/>
		<path fill="#FFFFFF" d="M112.1958389,24.6256104c0.2587891,0,0.4658203,0.2070313,0.4658203,0.4658203v1.2255859
			c0,0.2587891-0.2070313,0.4658203-0.4658203,0.4658203h-3.8828125c-0.2592773,0-0.4663086-0.2070313-0.4663086-0.4658203
			V14.8233643c0-0.2587891,0.2070313-0.4663086,0.4663086-0.4663086h3.8828125c0.2587891,0,0.4658203,0.2075195,0.4658203,0.4663086
			v1.1386719c0,0.2592773-0.2070313,0.4663086-0.4658203,0.4663086h-1.8120117v3.3476563h1.2250977
			c0.2587891,0,0.4663086,0.2075195,0.4663086,0.4663086v0.862793c0,0.2587891-0.2075195,0.4658203-0.4663086,0.4658203h-1.2250977
			v3.0546875H112.1958389z"/>
	</g>
	<g>
		<path fill="#322A7D" d="M277.853363,104.298584l-2.9411011-2.210144l-7.9683838-5.9880981
			c-0.5670776-0.4261475-1.2310791-0.631958-1.8898315-0.631897c-0.9564209,0.000061-1.9013672,0.434082-2.5201416,1.2573853
			l-7.5494385,10.0462036l-2.5006104,3.3275757l-6.9776611,9.2852783c-1.0447998,1.3902588-0.7644653,3.3646851,0.6260986,4.4096069
			l6.3748779,4.7906494l4.5345459,3.4075928c0.5670776,0.4262085,1.2310791,0.631897,1.8897705,0.631897
			c0.9564209,0,1.9013062-0.434021,2.5200195-1.2572632l17.0276489-22.6589355
			C279.5240784,107.3179321,279.2437439,105.3435059,277.853363,104.298584z"/>
		<path fill="#00A399" d="M253.0522156,90.5812988l-48.708313-5.5313721
			c-0.1437378-0.0163574-0.2862549-0.024292-0.4274902-0.024292c-1.880127,0.000061-3.5014038,1.4121704-3.7186279,3.324707
			l-2.1604004,19.0241089l-1.6796875,14.791687c-0.2335815,2.0563354,1.2443237,3.9122314,3.300415,4.1456909l48.708313,5.5317993
			c0.1436768,0.0162964,0.2860718,0.024231,0.4272461,0.024231c1.8658447,0,3.4777832-1.3912354,3.713501-3.2827148
			l-6.3748779-4.7906494c-1.390564-1.0449219-1.6708984-3.0193481-0.6260986-4.4096069l6.9776611-9.2852783l2.5006104-3.3275757
			l1.3677979-12.0447998C256.5857849,92.6711426,255.1075134,90.8146973,253.0522156,90.5812988z"/>
		<path fill="#D31B5A" d="M234.1687317,22.9637451h-20.8076172h-28.2132568c-2.069519,0-3.7472534,1.6776733-3.7472534,3.7469482
			v5.3642578v28.6694946c0,2.069397,1.6777344,3.7468872,3.7472534,3.7468872h49.020874
			c2.0687866,0,3.7467651-1.6774902,3.7467651-3.7468872v-1.7753296V34.9036255v-8.1929321
			C237.9154968,24.6414185,236.2375183,22.9637451,234.1687317,22.9637451z"/>
		<path fill="#0063A6" d="M260.1527405,51.5067749l-2.5740356-15.6189575l-5.3971558-32.7496338
			C251.8790588,1.3025513,250.2906189-0.000061,248.4892273,0c-0.2023926,0-0.4075317,0.0164185-0.6138306,0.050415
			L214.294281,5.5845337c-2.0418701,0.3364868-3.4240723,2.2642212-3.0875854,4.3062744l2.1544189,13.072937l1.7798462,10.7999878
			l4.0368652,24.4955444c0.3025513,1.8358765,1.8908081,3.1385498,3.6922607,3.1385498
			c0.2023315,0,0.4075928-0.0164795,0.6137695-0.050415l14.4316406-2.3782959l19.1494751-3.1558228
			C259.106842,55.4768677,260.4892273,53.548645,260.1527405,51.5067749z"/>
		<path fill="#0063A6" d="M248.4892273,0c-0.2023926,0.0000076-0.4075623,0.0164566-0.6138306,0.0504456l-33.5811462,5.5340805
			c-2.0418701,0.3364792-3.4240723,2.264267-3.0875854,4.3062744l2.1544189,13.0729446h20.8076477
			c2.0687561,0,3.7467346,1.6777039,3.7467346,3.7469788v8.1929169l19.6632385,0.9841919L252.1815491,3.138176
			C251.8790588,1.3025665,250.2905884-0.0000381,248.4892273,0"/>
		<path fill="#95C83D" d="M155.2774658,30.7773895c-4.1435852,0.0002136-7.6030884,3.2524261-7.8125,7.437561l-2.9352112,58.6432648
			c-0.216217,4.3181,3.1096497,7.9937439,7.4274597,8.2098236l46.0801697,2.3063965l2.1603699-19.0240784
			c0.2172241-1.9125519,1.8385315-3.3246307,3.7186279-3.3247223c0.1412659-0.0000153,0.283783,0.0079498,0.4274902,0.0242767
			l48.708313,5.5313873c2.0552979,0.2334137,3.5335999,2.0898438,3.3000488,4.1459656l-1.3677673,12.044754l7.549408-10.0461578
			c0.6187744-0.823349,1.5637512-1.2573395,2.5201721-1.2574158c0.6587219-0.0000458,1.3227234,0.2057343,1.8898315,0.6318817
			l7.9683838,5.9880981l2.8705444-57.3507843c0.216217-4.3184967-3.1096497-7.9941254-7.4281311-8.2103424l-12.7759705-0.6394653
			l2.5740051,15.6189575c0.3364868,2.0418701-1.0458679,3.9700623-3.087738,4.3065338l-19.1495056,3.1557922v1.7753448
			c0,2.0694122-1.6779785,3.7468567-3.7467346,3.7468567h-49.020874c-2.0695496,0-3.7472534-1.6774445-3.7472534-3.7468567
			V32.0749664l-25.7254028-1.2876129C155.5418396,30.7806702,155.4095154,30.7773743,155.2774658,30.7773895"/>
		<path fill="#086242" d="M237.9154663,34.9036407v24.0654755l19.1495056-3.1557922
			c2.0418701-0.3364716,3.4242249-2.2646637,3.087738-4.3065338l-2.5740051-15.6189575L237.9154663,34.9036407"/>
		<path fill="#322A7D" d="M274.912262,102.0884247l-0.0646667,1.2924957
			c-0.2094116,4.1847382-3.6686707,7.437027-7.8127441,7.437027c-0.1320801,0-0.2646484-0.0032959-0.3980103-0.009964
			l-12.0422668-0.6027374l-2.0824585,18.3384552c-0.0015564,0.0137939-0.0032349,0.0276794-0.0049438,0.0414429l4.5345459,3.4076233
			c0.5670471,0.4261627,1.2310791,0.631897,1.8897705,0.631897c0.9563904,0,1.9012756-0.434021,2.519989-1.2572937
			l17.0276794-22.658905c1.0449219-1.3905487,0.7645874-3.3649597-0.625824-4.4098816L274.912262,102.0884247"/>
		<path fill="#342F32" d="M265.0540466,95.4684448c-0.9564209,0.0000763-1.9013977,0.4340668-2.5201721,1.2574158
			l-7.549408,10.0461578l-0.3898926,3.4332275l12.0422668,0.6027374c0.1333618,0.0066681,0.2659302,0.009964,0.3980103,0.009964
			c4.1440735,0,7.6033325-3.2522888,7.8127441-7.437027l0.0646667-1.2924957l-7.9683838-5.9880981
			C266.37677,95.6741791,265.7127686,95.468399,265.0540466,95.4684448"/>
		<path fill="#00A399" d="M198.037384,107.3744354l-1.679718,14.791687
			c-0.233551,2.0563812,1.2443237,3.9122772,3.3004456,4.1456909l48.708313,5.5317993
			c0.1436462,0.0163116,0.2860413,0.0242615,0.4272461,0.0242615c1.8658447,0,3.4777832-1.3912201,3.713501-3.2827301
			l-6.3749084-4.7906342c-1.3905334-1.0449219-1.6708679-3.0193329-0.6260681-4.4096069l6.9776611-9.2853088L198.037384,107.3744354
			"/>
		<path fill="#00A050" d="M203.9163818,85.0256348c-1.8800964,0.0000916-3.5014038,1.4121704-3.7186279,3.3247223
			l-2.1603699,19.0240784l54.4464722,2.7251587l2.5006104-3.3275757l1.3677673-12.044754
			c0.233551-2.0561218-1.244751-3.9125519-3.3000488-4.1459656l-48.708313-5.5313873
			C204.2001648,85.0335846,204.0576477,85.0256195,203.9163818,85.0256348"/>
		<path fill="#2F2E58" d="M252.4838562,110.0995941l-6.9776611,9.2853088
			c-1.0447998,1.390274-0.7644653,3.3646851,0.6260681,4.4096069l6.3749084,4.7906342
			c0.001709-0.0137634,0.0033875-0.0276489,0.0049438-0.0414429l2.0824585-18.3384552L252.4838562,110.0995941"/>
		<polyline fill="#322F32" points="254.9844666,106.7720184 252.4838562,110.0995941 254.594574,110.205246 
			254.9844666,106.7720184 		"/>
		<path fill="#D31B5A" d="M213.361084,22.9637451h-28.2132263c-2.0695496,0-3.7472534,1.6777039-3.7472534,3.7469788v5.3642426
			l33.7403259,1.6887665L213.361084,22.9637451"/>
		<path fill="#333360" d="M234.1687317,22.9637451H213.361084l1.7798462,10.7999878l22.7745361,1.1399078v-8.1929169
			C237.9154663,24.641449,236.2374878,22.9637451,234.1687317,22.9637451"/>
		<path fill="#8F2E33" d="M181.4006042,32.0749664v28.6694946c0,2.0694122,1.6777039,3.7468567,3.7472534,3.7468567h49.020874
			c2.0687561,0,3.7467346-1.6774445,3.7467346-3.7468567v-1.7753448l-14.4316406,2.3782959
			c-0.2061462,0.0339661-0.411438,0.0504303-0.613739,0.0504303c-1.8014832,0-3.38974-1.3027039-3.6922607-3.1385651
			l-4.0368958-24.4955444L181.4006042,32.0749664"/>
		<path fill="#353538" d="M215.1409302,33.7637329l4.0368958,24.4955444
			c0.3025208,1.8358612,1.8907776,3.1385651,3.6922607,3.1385651c0.202301,0,0.4075928-0.0164642,0.613739-0.0504303
			l14.4316406-2.3782959V34.9036407L215.1409302,33.7637329"/>
		<g>
			<path fill="#FFFFFF" d="M218.0220032,31.1778564c-23.8852539,0-43.3168945,19.4321289-43.3168945,43.3173828
				s19.4316406,43.3168945,43.3168945,43.3168945c23.8857422,0,43.3173828-19.4316406,43.3173828-43.3168945
				S241.9077454,31.1778564,218.0220032,31.1778564z M251.1138,74.4952393c0,18.246582-14.8447266,33.0913086-33.0917969,33.0913086
				c-18.246582,0-33.0913086-14.8447266-33.0913086-33.0913086s14.8447266-33.0917969,33.0913086-33.0917969
				C236.2690735,41.4034424,251.1138,56.2486572,251.1138,74.4952393z"/>
			<polygon fill="#FFFFFF" points="208.5918274,92.5026245 239.782074,74.4962158 208.5918274,56.4876709 			"/>
		</g>
	</g>
	<path fill="#D31B5A" d="M3.5561752,95.4322052C0.0327835,95.4322052,0,98.3682251,0,101.5489502
		c0,3.1811218,0.0327835,6.1171417,3.5561752,6.1171417c2.7891388,0,2.9849319-2.7567596,2.9849319-3.60495H5.4316788
		c-0.0161209,1.5171204-0.5219193,2.7241058-1.8755035,2.7241058c-2.4795456,0-2.5121994-2.1044922-2.5121994-5.2362976
		c0-3.1318207,0.0326538-5.2359009,2.5121994-5.2359009c1.5004578,0,1.8593826,1.2232361,1.8593826,2.5283203h1.0439835
		C6.4595413,97.7814026,6.4106216,95.4322052,3.5561752,95.4322052"/>
	<path fill="#D31B5A" d="M11.7636948,106.7852478c-2.479538,0-2.5121918-2.1044922-2.5121918-5.2362976
		c0-3.1318207,0.0326538-5.2359009,2.5121918-5.2359009c2.4795456,0,2.5121994,2.1040802,2.5121994,5.2359009
		C14.2758942,104.6807556,14.2432404,106.7852478,11.7636948,106.7852478 M11.7636948,95.4322052
		c-3.5233841,0-3.5561676,2.9360199-3.5561676,6.116745c0,3.1811218,0.0327835,6.1171417,3.5561676,6.1171417
		c3.5233917,0,3.5561752-2.9360199,3.5561752-6.1171417C15.31987,98.3682251,15.2870865,95.4322052,11.7636948,95.4322052"/>
	<polyline fill="#D31B5A" points="25.011734,95.6607819 23.9677582,95.6607819 23.9677582,105.9692993 23.9351044,106.0020905 
		19.1558228,95.6607819 17.5571289,95.6607819 17.5571289,107.4376526 18.6011124,107.4376526 18.6011124,97.0142365 
		18.6337662,96.9821167 23.4297028,107.4376526 25.011734,107.4376526 25.011734,95.6607819 	"/>
	<polyline fill="#D31B5A" points="33.2852402,95.6607819 26.4995651,95.6607819 26.4995651,96.541626 29.3701477,96.541626 
		29.3701477,107.4376526 30.4141235,107.4376526 30.4141235,96.541626 33.2852402,96.541626 33.2852402,95.6607819 	"/>
	<polyline fill="#D31B5A" points="40.0727921,95.6607819 34.7388077,95.6607819 34.7388077,107.4376526 40.1870193,107.4376526 
		40.1870193,106.5568085 35.7827835,106.5568085 35.7827835,101.8262939 39.8770065,101.8262939 39.8770065,100.9454498 
		35.7827835,100.9454498 35.7827835,96.541626 40.0727921,96.541626 40.0727921,95.6607819 	"/>
	<polyline fill="#D31B5A" points="49.4707718,95.6607819 48.426796,95.6607819 48.426796,105.9692993 48.3941422,106.0020905 
		43.6147232,95.6607819 42.0161667,95.6607819 42.0161667,107.4376526 43.0601578,107.4376526 43.0601578,97.0142365 
		43.0928116,96.9821167 47.8887405,107.4376526 49.4707718,107.4376526 49.4707718,95.6607819 	"/>
	<polyline fill="#D31B5A" points="57.7441483,95.6607819 50.9584732,95.6607819 50.9584732,96.541626 53.8291855,96.541626 
		53.8291855,107.4376526 54.8730392,107.4376526 54.8730392,96.541626 57.7441483,96.541626 57.7441483,95.6607819 	"/>
	<polyline fill="#D31B5A" points="63.9292831,95.6607819 62.8853073,95.6607819 62.8853073,107.4376526 63.9292831,107.4376526 
		63.9292831,95.6607819 	"/>
	<polyline fill="#D31B5A" points="73.9292831,95.6607819 72.8853073,95.6607819 72.8853073,105.9692993 72.8525162,106.0020905 
		68.0732346,95.6607819 66.474678,95.6607819 66.474678,107.4376526 67.5186539,107.4376526 67.5186539,97.0142365 
		67.5513077,96.9821167 72.3472519,107.4376526 73.9292831,107.4376526 73.9292831,95.6607819 	"/>
	<polyline fill="#D31B5A" points="85.8248062,95.6607819 79.0391312,95.6607819 79.0391312,96.541626 81.9097061,96.541626 
		81.9097061,107.4376526 82.9536972,107.4376526 82.9536972,96.541626 85.8248062,96.541626 85.8248062,95.6607819 	"/>
	<polyline fill="#D31B5A" points="93.9502335,95.6607819 92.9062424,95.6607819 92.9062424,100.9454498 88.2734451,100.9454498 
		88.2734451,95.6607819 87.2295914,95.6607819 87.2295914,107.4376526 88.2734451,107.4376526 88.2734451,101.8262939 
		92.9062424,101.8262939 92.9062424,107.4376526 93.9502335,107.4376526 93.9502335,95.6607819 	"/>
	<polyline fill="#D31B5A" points="101.6846085,95.6607819 96.3506241,95.6607819 96.3506241,107.4376526 101.7988358,107.4376526 
		101.7988358,106.5568085 97.3945999,106.5568085 97.3945999,101.8262939 101.4888229,101.8262939 101.4888229,100.9454498 
		97.3945999,100.9454498 97.3945999,96.541626 101.6846085,96.541626 101.6846085,95.6607819 	"/>
	<path fill="#D31B5A" d="M108.489769,103.4576416l1.9902649-6.6553192h0.0326538l2.0064087,6.6553192H108.489769
		 M111.1650925,95.6607819h-1.2397614l-3.7191772,11.7768707h1.0438538l0.9297485-3.0991516h4.6161499l0.9462891,3.0991516
		h1.0927582L111.1650925,95.6607819"/>
	<path fill="#D31B5A" d="M119.6010666,95.4322052c-3.8333893,0-3.5561676,3.8329926-3.5561676,6.116745
		s-0.2772217,6.1171417,3.5561676,6.1171417c1.1094208,0,2.202179-0.1629944,3.24617-0.4892731v-5.8885651h-3.425827v0.8808441
		h2.3818359v4.2733459c-0.5547028,0.2119141-1.3052063,0.342804-2.202179,0.342804
		c-2.5444489,0-2.5121918-2.2674866-2.5121918-5.2362976s-0.0322571-5.2359009,2.5121918-5.2359009
		c1.6474762,0,2.3164063,0.8155365,2.3164063,2.3653107h1.0439758
		C123.010231,96.3946228,121.8520279,95.4322052,119.6010666,95.4322052"/>
	<polyline fill="#D31B5A" points="130.6958313,95.6607819 125.3618393,95.6607819 125.3618393,107.4376526 130.8100586,107.4376526 
		130.8100586,106.5568085 126.4058304,106.5568085 126.4058304,101.8262939 130.500061,101.8262939 130.500061,100.9454498 
		126.4058304,100.9454498 126.4058304,96.541626 130.6958313,96.541626 130.6958313,95.6607819 	"/>
	<path fill="#D31B5A" d="M37.0859756,124.77211c-2.479538,0-2.5121918-2.1044922-2.5121918-5.2362976
		c0-3.1319427,0.0326538-5.2358856,2.5121918-5.2358856c2.4795532,0,2.512207,2.1039429,2.512207,5.2358856
		C39.5981827,122.6676178,39.5655289,124.77211,37.0859756,124.77211 M37.0859756,113.4190674
		c-3.5233765,0-3.5561676,2.9360199-3.5561676,6.116745c0,3.1811218,0.0327911,6.1171417,3.5561676,6.1171417
		c3.5233917,0,3.5561829-2.9360199,3.5561829-6.1171417C40.6421585,116.3550873,40.6093674,113.4190674,37.0859756,113.4190674"/>
	<polyline fill="#D31B5A" points="47.7080154,113.647644 42.7329483,113.647644 42.7329483,125.4243774 43.7769241,125.4243774 
		43.7769241,119.8131714 47.4306564,119.8131714 47.4306564,118.9321899 43.7769241,118.9321899 43.7769241,114.5285034 
		47.7080154,114.5285034 47.7080154,113.647644 	"/>
	<path fill="#D31B5A" d="M54.0889359,121.444519l1.9901428-6.6553345h0.0327759l2.0058594,6.6553345H54.0889359
		 M56.7641373,113.647644H55.524498l-3.7193146,11.7767334h1.0439911l0.9296265-3.0990143h4.616272l0.9462891,3.0990143h1.0927582
		L56.7641373,113.647644"/>
	<path fill="#D31B5A" d="M62.8189316,124.5435333v-4.7792816h2.1200714c1.7944794,0,2.1044922,1.4190369,2.1044922,2.4628754
		c0,1.7290497-0.8320618,2.3164063-2.5609741,2.3164063H62.8189316 M62.8189316,118.8834076v-4.3549042h2.0712891
		c0.8319397,0,1.9087067,0.0321045,1.9087067,1.9897308c0,1.337326-0.4731445,2.3651733-1.9737396,2.3651733H62.8189316
		 M65.0532303,113.647644h-3.2782898v11.7767334h3.3271942c1.9740143,0,2.9853363-1.1581879,2.9853363-3.2788086
		c0-1.4843445-0.4076996-2.5116577-1.9576111-2.8377991v-0.0327759c1.4844666-0.4077148,1.7129211-1.3866425,1.7129211-2.8056793
		C67.8427811,114.3976135,66.896492,113.647644,65.0532303,113.647644"/>
	<path fill="#D31B5A" d="M76.8003922,113.647644h-1.0439758v7.4051666c0,1.5332489,0,3.7192993-2.3979645,3.7192993
		c-2.3979797,0-2.3979797-2.1860504-2.3979797-3.7192993v-7.4051666h-1.0439758v8.1717834
		c0,3.034256,1.5986938,3.8335266,3.4419556,3.8335266c1.8432465,0,3.4419403-0.7992706,3.4419403-3.8335266V113.647644"/>
	<polyline fill="#D31B5A" points="86.6070175,113.647644 85.5630417,113.647644 85.5630417,123.9561768 85.5302505,123.9888306 
		80.7509689,113.647644 79.1524124,113.647644 79.1524124,125.4243774 80.1963882,125.4243774 80.1963882,115.0010986 
		80.2290421,114.9688568 85.0249863,125.4243774 86.6070175,125.4243774 86.6070175,113.647644 	"/>
	<path fill="#D31B5A" d="M90.1328201,124.5435333v-10.0150299h1.3706512c2.903244,0,3.359848,0.9783936,3.359848,4.3549042
		c0,4.8120728-0.3096008,5.6601257-3.4580688,5.6601257H90.1328201 M92.2046585,113.647644h-3.1158142v11.7767334h2.6919861
		c3.5556335,0,4.1264801-1.9246826,4.1264801-5.8392487C95.9073105,115.5723419,95.4996109,113.647644,92.2046585,113.647644"/>
	<path fill="#D31B5A" d="M99.4341812,121.444519l1.9901428-6.6553345h0.0327911l2.0062561,6.6553345H99.4341812
		 M102.1093826,113.647644h-1.2397766l-3.7191772,11.7767334h1.0439911l0.9296265-3.0990143h4.616272l0.9462891,3.0990143h1.0927582
		L102.1093826,113.647644"/>
	<polyline fill="#D31B5A" points="114.7212753,113.647644 113.6772842,113.647644 113.6772842,123.9561768 113.6445084,123.9888306 
		108.8652267,113.647644 107.2666702,113.647644 107.2666702,125.4243774 108.3106461,125.4243774 108.3106461,115.0010986 
		108.3432999,114.9688568 113.1392441,125.4243774 114.7212753,125.4243774 114.7212753,113.647644 	"/>
	<path fill="#D31B5A" d="M120.4663315,113.4190674c-3.5233917,0-3.5561829,2.9360199-3.5561829,6.116745
		c0,3.1811218,0.0327911,6.1171417,3.5561829,6.1171417c2.7891388,0,2.9849243-2.7568817,2.9849243-3.60495h-1.1094208
		c-0.0161285,1.5169983-0.5219269,2.7241058-1.8755035,2.7241058c-2.4794159,0-2.5121918-2.1044922-2.5121918-5.2362976
		c0-3.1319427,0.0327759-5.2358856,2.5121918-5.2358856c1.5004578,0,1.859375,1.2230988,1.859375,2.5283051h1.0439911
		C123.3696976,115.7677307,123.3207779,113.4190674,120.4663315,113.4190674"/>
	<polyline fill="#D31B5A" points="130.6958313,113.647644 125.3618393,113.647644 125.3618393,125.4243774 130.8100586,125.4243774 
		130.8100586,124.5435333 126.4058304,124.5435333 126.4058304,119.8131714 130.500061,119.8131714 130.500061,118.9321899 
		126.4058304,118.9321899 126.4058304,114.5285034 130.6958313,114.5285034 130.6958313,113.647644 	"/>
	<polygon fill="#D31B5A" points="295.2778625,107.4366455 295.2778625,95.65979 296.3218079,95.65979 296.3218079,106.5557861 
		300.2202454,106.5557861 300.2202454,107.4366455 	"/>
	<polygon fill="#D31B5A" points="307.0903625,95.65979 307.0903625,96.5406494 302.8003235,96.5406494 302.8003235,100.944458 
		306.8940735,100.944458 306.8940735,101.8253174 302.8003235,101.8253174 302.8003235,106.5557861 307.2046204,106.5557861 
		307.2046204,107.4366455 301.7563782,107.4366455 301.7563782,95.65979 	"/>
	<path fill="#D31B5A" d="M312.3286438,101.5479736c0-3.1806641,0.0322266-6.1166992,3.5556641-6.1166992
		c2.8544922,0,2.9042969,2.3491211,2.9042969,3.4091797h-1.0439453c0-1.3051758-0.359375-2.5283203-1.8603516-2.5283203
		c-2.4794922,0-2.5117188,2.1040039-2.5117188,5.2358398s0.0322266,5.2363281,2.5117188,5.2363281
		c1.3544922,0,1.8603516-1.2070313,1.8759766-2.7241211h1.109375c0,0.8481445-0.1953125,3.6049805-2.9853516,3.6049805
		C312.3608704,107.6651611,312.3286438,104.729126,312.3286438,101.5479736z"/>
	<path fill="#D31B5A" d="M324.0923157,95.4312744c3.5234375,0,3.5566406,2.9360352,3.5566406,6.1166992
		c0,3.1811523-0.0332031,6.1171875-3.5566406,6.1171875c-3.5224609,0-3.5556641-2.9360352-3.5556641-6.1171875
		C320.5366516,98.3673096,320.5698547,95.4312744,324.0923157,95.4312744z M324.0923157,106.7843018
		c2.4794922,0,2.5126953-2.1044922,2.5126953-5.2363281s-0.0332031-5.2358398-2.5126953-5.2358398
		c-2.4785156,0-2.5117188,2.1040039-2.5117188,5.2358398S321.6138,106.7843018,324.0923157,106.7843018z"/>
	<polygon fill="#D31B5A" points="329.886261,107.4366455 329.886261,95.65979 331.4848938,95.65979 336.2641907,106.0010986 
		336.2964172,105.9683838 336.2964172,95.65979 337.3403625,95.65979 337.3403625,107.4366455 335.7583313,107.4366455 
		330.9634094,96.9810791 330.9302063,97.0133057 330.9302063,107.4366455 	"/>
	<polygon fill="#D31B5A" points="341.6997375,96.5406494 338.8286438,96.5406494 338.8286438,95.65979 345.6138,95.65979 
		345.6138,96.5406494 342.7436829,96.5406494 342.7436829,107.4366455 341.6997375,107.4366455 	"/>
	<polygon fill="#D31B5A" points="352.401886,95.65979 352.401886,96.5406494 348.1118469,96.5406494 348.1118469,100.944458 
		352.2055969,100.944458 352.2055969,101.8253174 348.1118469,101.8253174 348.1118469,106.5557861 352.5161438,106.5557861 
		352.5161438,107.4366455 347.0679016,107.4366455 347.0679016,95.65979 	"/>
	<polygon fill="#D31B5A" points="354.3442688,107.4366455 354.3442688,95.65979 355.9429016,95.65979 360.7221985,106.0010986 
		360.754425,105.9683838 360.754425,95.65979 361.7983704,95.65979 361.7983704,107.4366455 360.2163391,107.4366455 
		355.4214172,96.9810791 355.3882141,97.0133057 355.3882141,107.4366455 	"/>
	<path fill="#D31B5A" d="M365.1948547,103.0650635c0,1.5332031,0,3.7192383,2.3974609,3.7192383
		c2.3984375,0,2.3984375-2.1860352,2.3984375-3.7192383V95.65979h1.0439453v8.171875
		c0,3.0341797-1.5986328,3.8334961-3.4423828,3.8334961c-1.8427734,0-3.4414063-0.7993164-3.4414063-3.8334961V95.65979h1.0439453
		V103.0650635z"/>
	<path fill="#D31B5A" d="M380.9243469,95.65979l3.6699219,11.7768555h-1.0927734l-0.9462891-3.0991211h-4.6162109
		l-0.9296875,3.0991211h-1.0439453l3.71875-11.7768555H380.9243469z M380.5161438,94.7623291l-2.3320313-2.234375H379.4888
		l1.8427734,2.234375H380.5161438z M382.2778625,103.456665l-2.0058594-6.6552734H380.2388l-1.9892578,6.6552734H382.2778625z"/>
	<polygon fill="#D31B5A" points="389.5405579,107.4366455 389.5405579,95.65979 390.5845032,95.65979 390.5845032,106.5557861 
		394.4829407,106.5557861 394.4829407,107.4366455 	"/>
	<polygon fill="#D31B5A" points="394.8598938,95.65979 396.0503235,95.65979 395.0718079,98.6119385 394.20755,98.6119385 	"/>
	<path fill="#D31B5A" d="M403.5063782,95.65979v0.8808594h-4.2900391v4.4038086h4.09375v0.8808594h-4.09375v4.7304688h4.4042969
		v0.8808594h-5.4482422V95.65979H403.5063782z M400.7983704,94.7623291l-2.3330078-2.234375h1.3056641l1.8427734,2.234375
		H400.7983704z"/>
	<path fill="#D31B5A" d="M406.3462219,101.7276611v5.7089844h-1.0439453V95.65979h3.2460938
		c2.2666016,0,2.8378906,0.75,2.8378906,2.8217773c0,1.4682617-0.2441406,2.4467773-1.8271484,2.8056641v0.0327148
		c1.6474609,0.3422852,1.7460938,0.5380859,1.7460938,4.746582c0,0.456543,0.0810547,0.9135742,0.1132813,1.3701172h-0.9941406
		c-0.0986328-0.3427734-0.1474609-2.2998047-0.1630859-2.9360352c-0.0166016-0.5058594,0.3261719-2.7729492-1.9414063-2.7729492
		H406.3462219z M406.3462219,100.8468018h1.6962891c1.5654297,0,2.2998047-0.4077148,2.2998047-2.3813477
		c0-1.6152344-0.6357422-1.9248047-1.859375-1.9248047h-2.1367188V100.8468018z"/>
	<polygon fill="#D31B5A" points="418.9096985,95.65979 418.9096985,96.5406494 414.6196594,96.5406494 414.6196594,100.944458 
		418.7134094,100.944458 418.7134094,101.8253174 414.6196594,101.8253174 414.6196594,106.5557861 419.0239563,106.5557861 
		419.0239563,107.4366455 413.5757141,107.4366455 413.5757141,95.65979 	"/>
	<path fill="#D31B5A" d="M295.4087219,113.6466064h3.1152344c3.2949219,0,3.703125,1.9248047,3.703125,5.9375
		c0,3.9145508-0.5712891,5.8393555-4.1269531,5.8393555h-2.6914063V113.6466064z M296.4526672,124.5426025h1.2724609
		c3.1474609,0,3.4580078-0.8481445,3.4580078-5.6601563c0-3.3764648-0.4570313-4.3549805-3.3603516-4.3549805h-1.3701172
		V124.5426025z"/>
	<polygon fill="#D31B5A" points="309.8149719,113.6466064 309.8149719,114.5274658 305.5249329,114.5274658 
		305.5249329,118.9312744 309.6186829,118.9312744 309.6186829,119.8121338 305.5249329,119.8121338 305.5249329,124.5426025 
		309.9292297,124.5426025 309.9292297,125.4234619 304.4809875,125.4234619 304.4809875,113.6466064 	"/>
	<polygon fill="#D31B5A" points="315.2173157,125.4234619 315.2173157,113.6466064 316.261261,113.6466064 316.261261,124.5426025 
		320.1596985,124.5426025 320.1596985,125.4234619 	"/>
	<polygon fill="#D31B5A" points="320.535675,113.6466064 321.7261047,113.6466064 320.7475891,116.5987549 319.8833313,116.5987549 
			"/>
	<path fill="#D31B5A" d="M327.7964172,113.6466064l3.6699219,11.7768555h-1.0927734l-0.9462891-3.0991211h-4.6162109
		l-0.9296875,3.0991211h-1.0439453l3.71875-11.7768555H327.7964172z M329.1499329,121.4434814l-2.0058594-6.6552734h-0.0332031
		l-1.9892578,6.6552734H329.1499329z"/>
	<path fill="#D31B5A" d="M332.8071594,125.4234619v-11.7768555h3.2783203c1.84375,0,2.7890625,0.75,2.7890625,2.8217773
		c0,1.4189453-0.2275391,2.3979492-1.7119141,2.8056641v0.0327148c1.5488281,0.3261719,1.9570313,1.3535156,1.9570313,2.8378906
		c0,2.1206055-1.0117188,3.2788086-2.9853516,3.2788086H332.8071594z M335.8569641,118.8824463
		c1.5009766,0,1.9736328-1.027832,1.9736328-2.3652344c0-1.9575195-1.0761719-1.9897461-1.9082031-1.9897461h-2.0712891v4.3549805
		H335.8569641z M333.8511047,124.5426025h1.6640625c1.7285156,0,2.5605469-0.5874023,2.5605469-2.3164063
		c0-1.0439453-0.3095703-2.4628906-2.1044922-2.4628906h-2.1201172V124.5426025z"/>
	<path fill="#D31B5A" d="M344.3901672,113.4180908c3.5234375,0,3.5566406,2.9360352,3.5566406,6.1166992
		c0,3.1811523-0.0332031,6.1171875-3.5566406,6.1171875c-3.5224609,0-3.5556641-2.9360352-3.5556641-6.1171875
		C340.8345032,116.354126,340.8677063,113.4180908,344.3901672,113.4180908z M344.3901672,124.7711182
		c2.4794922,0,2.5126953-2.1044922,2.5126953-5.2363281s-0.0332031-5.2358398-2.5126953-5.2358398
		c-2.4785156,0-2.5117188,2.1040039-2.5117188,5.2358398S341.9116516,124.7711182,344.3901672,124.7711182z"/>
	<polygon fill="#D31B5A" points="350.1841125,125.4234619 350.1841125,113.6466064 351.7827454,113.6466064 356.5620422,123.987915 
		356.5942688,123.9552002 356.5942688,113.6466064 357.6382141,113.6466064 357.6382141,125.4234619 356.0561829,125.4234619 
		351.261261,114.9678955 351.2280579,115.0001221 351.2280579,125.4234619 	"/>
	<path fill="#D31B5A" d="M360.1216125,113.6466064h3.1152344c3.2949219,0,3.703125,1.9248047,3.703125,5.9375
		c0,3.9145508-0.5712891,5.8393555-4.1269531,5.8393555h-2.6914063V113.6466064z M361.1655579,124.5426025h1.2724609
		c3.1474609,0,3.4580078-0.8481445,3.4580078-5.6601563c0-3.3764648-0.4570313-4.3549805-3.3603516-4.3549805h-1.3701172
		V124.5426025z"/>
	<path fill="#D31B5A" d="M373.1411438,113.6466064l3.6699219,11.7768555h-1.0927734l-0.9462891-3.0991211h-4.6162109
		l-0.9296875,3.0991211h-1.0439453l3.71875-11.7768555H373.1411438z M374.4946594,121.4434814L372.4888,114.788208h-0.0332031
		l-1.9892578,6.6552734H374.4946594z"/>
	<polygon fill="#D31B5A" points="378.2983704,125.4234619 378.2983704,113.6466064 379.8970032,113.6466064 384.6763,123.987915 
		384.7085266,123.9552002 384.7085266,113.6466064 385.7524719,113.6466064 385.7524719,125.4234619 384.1704407,125.4234619 
		379.3755188,114.9678955 379.3423157,115.0001221 379.3423157,125.4234619 	"/>
	<path fill="#D31B5A" d="M387.941925,119.53479c0-3.1806641,0.0322266-6.1166992,3.5556641-6.1166992
		c2.8544922,0,2.9042969,2.3486328,2.9042969,3.4091797h-1.0439453c0-1.3051758-0.359375-2.5283203-1.8603516-2.5283203
		c-2.4794922,0-2.5117188,2.1040039-2.5117188,5.2358398s0.0322266,5.2363281,2.5117188,5.2363281
		c1.3544922,0,1.8603516-1.2070313,1.8759766-2.7241211h1.109375c0,0.8481445-0.1953125,3.6049805-2.9853516,3.6049805
		C387.9741516,125.6519775,387.941925,122.7159424,387.941925,119.53479z"/>
	<polygon fill="#D31B5A" points="401.7290344,113.6466064 401.7290344,114.5274658 397.4389954,114.5274658 
		397.4389954,118.9312744 401.5327454,118.9312744 401.5327454,119.8121338 397.4389954,119.8121338 397.4389954,124.5426025 
		401.8432922,124.5426025 401.8432922,125.4234619 396.39505,125.4234619 396.39505,113.6466064 	"/>
</g>
</svg>
